<svg id="Слой_1" data-name="Слой 1" xmlns="http://www.w3.org/2000/svg" xmlns:xlink="http://www.w3.org/1999/xlink" viewBox="0 0 334.46 90.42"><defs><style>.cls-1{fill:none;}.cls-2{clip-path:url(#clip-path);}.cls-3{fill:#fff;}</style><clipPath id="clip-path" transform="translate(0 0)"><rect class="cls-1" width="334.46" height="90.42"/></clipPath></defs><g class="cls-2"><path class="cls-3" d="M256.67,40c-.65-5.94-2.66-7.75-8.51-7.68a31.33,31.33,0,0,0-6.42.61,6.13,6.13,0,0,0-5.13,5.86,95.36,95.36,0,0,0,.08,13.31c.37,4.2,2.3,5.88,6.43,6.78a37.58,37.58,0,0,0,13.35-.39v-8h-8.71V45.13h15.08v7.46c0,3.08.05,6.17,0,9.26a2,2,0,0,1-1.07,1.5,57.67,57.67,0,0,1-19.6,1c-7.49-1.09-10.87-4.54-11.64-12.15A72.06,72.06,0,0,1,230.3,40c.53-7.71,4.26-11.76,12-12.72a41.72,41.72,0,0,1,11.27.23c6,.93,9.23,5.1,9.23,11,0,1.2-.35,1.67-1.58,1.6-1.48-.09-3,0-4.51,0" transform="translate(0 0)"/><path class="cls-3" d="M293.54,41.22c-.33,3.31-1.94,5.25-5.21,5.51-3.65.29-7.35.06-11.15.06V32.48l12.27.68c2.51.27,3.7,1.81,4,4.38a16.79,16.79,0,0,1,.07,3.68m6.24-3.3c-.39-6.37-3.32-9.77-9.71-10.23-6.16-.45-12.37-.27-18.55-.36a2.29,2.29,0,0,0-.61.22V64.28a33.94,33.94,0,0,1,3.79,0c1.83.2,2.52-.36,2.41-2.32-.18-3.18-.05-6.37-.05-9.67.84,0,1.45,0,2.05,0,2.47.07,4.95.3,7.42.21,9.81-.34,13.85-4.86,13.25-14.61" transform="translate(0 0)"/><path class="cls-3" d="M139.37,50.41c-4.56,0-8.86-.21-13.13.08-2.5.17-3.23,1.52-3.23,4.11s.76,4,3.12,4.5c4.42.95,8.58-.11,12.55-2a1.6,1.6,0,0,0,.66-1.15c.07-1.71,0-3.43,0-5.52m-.18-4.57a3.58,3.58,0,0,0,.16-.6c.24-5.65-1.47-7.21-7-7.29-4.21-.06-8.44.56-13,.9,0-1.19-.06-2.69,0-4.19,0-.3.63-.71,1-.8a41.86,41.86,0,0,1,17.68-.7c4.53.88,6.9,3.34,7.06,8,.26,7.52.09,15,.09,22.58,0,.1-.11.21-.22.42h-5.58c-.06-1-.12-1.89-.19-3.12l-3.14,1.69c-4.47,2.45-9.15,2.12-13.9,1.08a2.73,2.73,0,0,1-.52-.19c-3.52-1.51-5.1-5-4.68-10.37.34-4.18,2.19-6.53,6-7.42a39.12,39.12,0,0,1,13.86-.23c.73.09,1.46.15,2.25.22" transform="translate(0 0)"/><path class="cls-3" d="M172.19,46.06h16.33c-.14-1.41-.24-2.56-.38-3.71A4.7,4.7,0,0,0,184.26,38,17.26,17.26,0,0,0,180,37.6c-5.86.2-8.26,2.77-7.83,8.46m21.95,4.68H172.4c-1.11,4.42,1.09,7.64,5.42,8.32a36.62,36.62,0,0,0,13.28-.58l2.23-.47c0,1.62.07,3.08-.05,4.53,0,.37-.64.88-1.07,1-6,1.37-12,1.85-18,.37-4.42-1.08-7.23-4-7.67-8.51a66.87,66.87,0,0,1-.14-12.73c.58-6.06,3.46-8.95,9.54-9.82a35.15,35.15,0,0,1,9.61,0c5.5.75,7.91,3.31,8.57,8.86a79.69,79.69,0,0,1,.06,9.06" transform="translate(0 0)"/><path class="cls-3" d="M110.79,33.77a68.65,68.65,0,0,0-7.28-1.18,60.2,60.2,0,0,0-9.4.15c-2.73.29-3.88,1.83-4,4.3-.11,2.83.68,4.08,3.57,4.78,3.7.9,7.5,1.4,11.2,2.33,5.46,1.36,7.23,3.85,7.25,9.58s-2.17,8.82-7.32,10.11c-6.47,1.64-12.92,1-19.3-.67A1.74,1.74,0,0,1,84.47,62c-.14-1.38,0-2.8,0-4.43a35.66,35.66,0,0,0,4.19.84c4.12.28,8.25.69,12.37.58s5.67-2.71,4.78-6.61a3.91,3.91,0,0,0-3.23-3c-2.94-.68-5.92-1.18-8.89-1.76-.48-.09-1-.19-1.46-.27-7.74-1.26-9.46-6.5-7.77-13.7a7.78,7.78,0,0,1,5.73-5.6c6.54-2,13.1-1.44,19.63.14a1.57,1.57,0,0,1,1,1.07c.12,1.46.05,2.93.05,4.5" transform="translate(0 0)"/><path class="cls-3" d="M199.63,58.44c4.52.34,8.76.69,13,1a11.29,11.29,0,0,0,2.94-.33c2.17-.44,3-1.37,3.05-3.32.08-2.32-.53-3.3-2.88-3.81-3.32-.71-6.71-1.1-10-1.83C200.8,49,199.08,46.83,199,42s2-7.81,6.69-8.86c5.66-1.27,11.33-.75,16.94.49a1.74,1.74,0,0,1,1.1,1.17,42.8,42.8,0,0,1,.05,4.29,26.14,26.14,0,0,0-3.78-.79c-3.69-.22-7.39-.43-11.08-.39-2.63,0-3.83,1.42-3.86,3.74a2.79,2.79,0,0,0,2.43,3.19c2.91.56,5.84,1.07,8.76,1.6l1.09.22c7,1.57,7.8,4.78,7,11.36-.35,3-2.47,4.83-5.28,5.65-6.2,1.81-12.4,1.12-18.57-.27a1.55,1.55,0,0,1-.85-1.12c-.1-1.34,0-2.7,0-3.85" transform="translate(0 0)"/></g><polygon class="cls-3" points="302.06 27.45 302.06 32.7 315.14 32.7 315.14 64.19 321.38 64.19 321.38 32.57 334.46 32.57 334.46 27.45 302.06 27.45"/><rect class="cls-3" x="153.36" y="23.5" width="5.76" height="40.66"/><g class="cls-2"><path class="cls-3" d="M38.31,5c-.15,3.32,0,6.64-.08,10,0,1.77-.09,3.54,0,5.3a3.18,3.18,0,0,1-1.31,2.79c-.55.47-1,1-1.56,1.54a1.52,1.52,0,0,1-.56,1.05C31,29.47,27.1,33.2,23.25,37l-5.42,5.33c-2.65,2.6-5.38,5.11-7.95,7.79-.4.42-1,.81-.73,1.51s1,.56,1.58.56H26c1.44,0,2,.61,2.05,2,0,3.47,0,6.93,0,10.39,0,.77,0,1.53,0,2.3a2.18,2.18,0,0,1-.38,1.38,1.32,1.32,0,0,1-1.25.9c-4.2.13-8.36-.09-12.26-1.86A23,23,0,0,1,.4,49.56c-1.43-8,1-14.91,6.72-20.68.54-.54,1.06-1.09,1.59-1.64l.5-.48c.19-.35.08-1,.82-.81l1-1c0-.32.1-.46.42-.41a34.09,34.09,0,0,0,2.78-2.73c.1-.45.16-.95.82-.86a9.7,9.7,0,0,0,1.67-1.53c3-2.88,5.89-5.78,8.83-8.68a3.87,3.87,0,0,0,.32-.37.53.53,0,0,1,.34-.33c.51-.8,1.38-1.24,1.94-2A35,35,0,0,0,31.44,5c1.49-1.4,2.93-2.86,4.38-4.3.46-.47.94-.87,1.65-.59s.78.91.79,1.56c0,1.12,0,2.24.05,3.35" transform="translate(0 0)"/><path class="cls-3" d="M38.46,36.86V23c0-1.36.34-1.69,1.69-1.71A28.77,28.77,0,0,1,50,22.38a23.24,23.24,0,0,1,12.6,10,44.56,44.56,0,0,1,2.07,4.15A30.5,30.5,0,0,1,66,42.68a22.47,22.47,0,0,1-6.56,18.41c-5.31,5.41-10.79,10.66-16.19,16L30.37,89.74c-.49.5-1,.88-1.72.56s-.72-1-.72-1.6l0-18.81c0-.41.05-.82.07-1.23a3.69,3.69,0,0,1,1.06-1.61c4.49-4.54,9.11-8.94,13.66-13.41,2.33-2.3,4.61-4.65,7-6.88,2.23-2.09,4.38-4.25,6.54-6.41.41-.41,1-.81.76-1.51s-1-.57-1.64-.57c-5,0-10.09,0-15.14,0a2.08,2.08,0,0,1-1.78-.63c-.2-.25-.36-.5,0-.77" transform="translate(0 0)"/></g></svg>