<svg width="335" height="91" viewBox="0 0 335 91" fill="none" xmlns="http://www.w3.org/2000/svg">
<g clip-path="url(#clip0_8_115)">
<mask id="mask0_8_115" style="mask-type:luminance" maskUnits="userSpaceOnUse" x="0" y="0" width="335" height="91">
<path d="M334.46 0H0V90.42H334.46V0Z" fill="white"/>
</mask>
<g mask="url(#mask0_8_115)">
<path d="M256.67 40C256.02 34.06 254.01 32.25 248.16 32.32C246.005 32.3019 243.853 32.5063 241.74 32.93C240.338 33.161 239.061 33.8717 238.125 34.9406C237.189 36.0094 236.654 37.3701 236.61 38.79C236.327 43.2231 236.353 47.6706 236.69 52.1C237.06 56.3 238.99 57.98 243.12 58.88C247.558 59.5481 252.079 59.416 256.47 58.49V50.49H247.76V45.13H262.84V52.59C262.84 55.67 262.89 58.76 262.84 61.85C262.795 62.1675 262.674 62.4695 262.488 62.7305C262.302 62.9916 262.056 63.204 261.77 63.35C255.342 64.8007 248.713 65.1389 242.17 64.35C234.68 63.26 231.3 59.81 230.53 52.2C230.109 48.1471 230.032 44.0658 230.3 40C230.83 32.29 234.56 28.24 242.3 27.28C246.05 26.8464 249.841 26.9238 253.57 27.51C259.57 28.44 262.8 32.61 262.8 38.51C262.8 39.71 262.45 40.18 261.22 40.11C259.74 40.02 258.22 40.11 256.71 40.11" fill="white"/>
<path d="M293.54 41.2201C293.21 44.5301 291.6 46.4701 288.33 46.7301C284.68 47.0201 280.98 46.7901 277.18 46.7901V32.4801L289.45 33.1601C291.96 33.4301 293.15 34.9701 293.45 37.5401C293.608 38.7605 293.631 39.9946 293.52 41.2201M299.76 37.9201C299.37 31.5501 296.44 28.1501 290.05 27.6901C283.89 27.2401 277.68 27.4201 271.5 27.3301C271.287 27.3741 271.082 27.4482 270.89 27.5501V64.2801C272.152 64.2095 273.418 64.2095 274.68 64.2801C276.51 64.4801 277.2 63.9201 277.09 61.9601C276.91 58.7801 277.04 55.5901 277.04 52.2901C277.88 52.2901 278.49 52.2901 279.09 52.2901C281.56 52.3601 284.04 52.5901 286.51 52.5001C296.32 52.1601 300.36 47.6401 299.76 37.8901" fill="white"/>
<path d="M139.37 50.4093C134.81 50.4093 130.51 50.1993 126.24 50.4893C123.74 50.6593 123.01 52.0093 123.01 54.5993C123.01 57.1893 123.77 58.5993 126.13 59.0993C130.55 60.0493 134.71 58.9893 138.68 57.0993C138.866 56.966 139.021 56.7943 139.135 56.5959C139.249 56.3976 139.319 56.1771 139.34 55.9493C139.41 54.2393 139.34 52.5193 139.34 50.4293M139.16 45.8593C139.231 45.6644 139.284 45.4636 139.32 45.2593C139.56 39.6093 137.85 38.0493 132.32 37.9693C128.11 37.9093 123.88 38.5293 119.32 38.8693C119.32 37.6793 119.26 36.1793 119.32 34.6793C119.32 34.3793 119.95 33.9693 120.32 33.8793C126.096 32.3889 132.124 32.1503 138 33.1793C142.53 34.0593 144.9 36.5193 145.06 41.1793C145.32 48.6993 145.15 56.1793 145.15 63.7593C145.15 63.8593 145.04 63.9693 144.93 64.1793H139.35C139.29 63.1793 139.23 62.2893 139.16 61.0593L136.02 62.7493C131.55 65.1993 126.87 64.8693 122.12 63.8293C121.941 63.7838 121.766 63.7201 121.6 63.6393C118.08 62.1293 116.5 58.6393 116.92 53.2693C117.26 49.0893 119.11 46.7393 122.92 45.8493C127.489 44.9482 132.183 44.8703 136.78 45.6193C137.51 45.7093 138.24 45.7693 139.03 45.8393" fill="white"/>
<path d="M172.19 46.0595H188.52C188.38 44.6495 188.28 43.4995 188.14 42.3495C188.077 41.2936 187.66 40.2898 186.956 39.5004C186.252 38.711 185.302 38.1822 184.26 37.9995C182.862 37.69 181.431 37.5556 180 37.5995C174.14 37.7995 171.74 40.3695 172.17 46.0595M194.12 50.7395H172.4C171.29 55.1595 173.49 58.3795 177.82 59.0595C182.245 59.6779 186.746 59.4814 191.1 58.4795L193.33 58.0095C193.33 59.6295 193.4 61.0895 193.28 62.5395C193.28 62.9095 192.64 63.4195 192.21 63.5395C186.21 64.9095 180.21 65.3895 174.21 63.9095C169.79 62.8295 166.98 59.9095 166.54 55.3995C166.089 51.1703 166.042 46.9076 166.4 42.6695C166.98 36.6095 169.86 33.7195 175.94 32.8495C179.128 32.4095 182.362 32.4095 185.55 32.8495C191.05 33.5995 193.46 36.1595 194.12 41.7095C194.312 44.7259 194.332 47.7508 194.18 50.7695" fill="white"/>
<path d="M110.79 33.7698C108.386 33.2463 105.956 32.8524 103.51 32.5898C100.377 32.3947 97.2346 32.4448 94.1099 32.7398C91.3799 33.0298 90.2299 34.5698 90.1099 37.0398C89.9999 39.8698 90.7899 41.1198 93.6799 41.8198C97.3799 42.7198 101.18 43.2198 104.88 44.1498C110.34 45.5098 112.11 47.9998 112.13 53.7298C112.15 59.4598 109.96 62.5498 104.81 63.8398C98.3399 65.4798 91.8899 64.8398 85.5099 63.1698C85.2572 63.0696 85.0315 62.9115 84.8509 62.7084C84.6703 62.5052 84.5398 62.2625 84.4699 61.9998C84.3299 60.6198 84.4699 59.1998 84.4699 57.5698C85.8485 57.9333 87.2477 58.2138 88.6599 58.4098C92.7799 58.6898 96.9099 59.0998 101.03 58.9898C105.15 58.8798 106.7 56.2798 105.81 52.3798C105.636 51.6129 105.234 50.9164 104.658 50.3812C104.082 49.846 103.358 49.497 102.58 49.3798C99.6399 48.6998 96.6599 48.1998 93.6899 47.6198C93.2099 47.5298 92.6899 47.4298 92.2299 47.3498C84.4899 46.0898 82.7699 40.8498 84.4599 33.6498C84.8173 32.2844 85.5393 31.042 86.5486 30.0555C87.558 29.069 88.8167 28.3757 90.1899 28.0498C96.7299 26.0498 103.29 26.6098 109.82 28.1898C110.061 28.2735 110.278 28.4146 110.452 28.6011C110.627 28.7875 110.753 29.0136 110.82 29.2598C110.94 30.7198 110.87 32.1898 110.87 33.7598" fill="white"/>
<path d="M199.63 58.4396C204.15 58.7796 208.39 59.1296 212.63 59.4396C213.62 59.459 214.609 59.3481 215.57 59.1096C217.74 58.6696 218.57 57.7396 218.62 55.7896C218.7 53.4696 218.09 52.4896 215.74 51.9796C212.42 51.2696 209.03 50.8796 205.74 50.1496C200.8 48.9996 199.08 46.8296 199 41.9996C198.92 37.1696 201 34.1896 205.69 33.1396C211.35 31.8696 217.02 32.3896 222.63 33.6296C222.894 33.7219 223.132 33.8764 223.323 34.0801C223.515 34.2837 223.654 34.5305 223.73 34.7996C223.818 36.2278 223.835 37.6596 223.78 39.0896C222.541 38.7334 221.278 38.4694 220 38.2996C216.31 38.0796 212.61 37.8696 208.92 37.9096C206.29 37.9096 205.09 39.3296 205.06 41.6496C205.004 42.0195 205.023 42.3969 205.115 42.7593C205.208 43.1218 205.372 43.462 205.599 43.7596C205.826 44.0572 206.11 44.3062 206.435 44.4917C206.76 44.6773 207.119 44.7956 207.49 44.8396C210.4 45.3996 213.33 45.9096 216.25 46.4396L217.34 46.6596C224.34 48.2296 225.14 51.4396 224.34 58.0196C223.99 61.0196 221.87 62.8496 219.06 63.6696C212.86 65.4796 206.66 64.7896 200.49 63.3996C200.27 63.2931 200.078 63.1361 199.931 62.9415C199.783 62.7469 199.683 62.52 199.64 62.2796C199.54 60.9396 199.64 59.5796 199.64 58.4296" fill="white"/>
</g>
<path d="M302.06 27.4502V32.7002H315.14V64.1902H321.38V32.5702H334.46V27.4502H302.06Z" fill="white"/>
<path d="M159.12 23.5H153.36V64.16H159.12V23.5Z" fill="white"/>
<mask id="mask1_8_115" style="mask-type:luminance" maskUnits="userSpaceOnUse" x="0" y="0" width="335" height="91">
<path d="M334.46 0H0V90.42H334.46V0Z" fill="white"/>
</mask>
<g mask="url(#mask1_8_115)">
<path d="M38.31 5.00028C38.16 8.32028 38.31 11.6403 38.23 15.0003C38.23 16.7703 38.14 18.5403 38.23 20.3003C38.2661 20.8382 38.1648 21.3766 37.9357 21.8646C37.7065 22.3527 37.357 22.7744 36.92 23.0903C36.37 23.5603 35.92 24.0903 35.36 24.6303C35.3421 24.834 35.2833 25.0319 35.1871 25.2124C35.0909 25.3928 34.9592 25.5519 34.8 25.6803C31 29.4703 27.1 33.2003 23.25 37.0003L17.83 42.3303C15.18 44.9303 12.45 47.4403 9.88005 50.1203C9.48005 50.5403 8.88005 50.9303 9.15005 51.6303C9.42005 52.3303 10.15 52.1903 10.73 52.1903H26C27.44 52.1903 28 52.8003 28.05 54.1903C28.05 57.6603 28.05 61.1203 28.05 64.5803C28.05 65.3503 28.05 66.1103 28.05 66.8803C28.0823 67.3699 27.9484 67.8562 27.67 68.2603C27.5821 68.5223 27.4142 68.75 27.1899 68.9115C26.9657 69.073 26.6964 69.16 26.42 69.1603C22.22 69.2903 18.06 69.0703 14.16 67.3003C10.5418 65.7654 7.37733 63.3289 4.96848 60.2233C2.55962 57.1176 0.986783 53.4466 0.400048 49.5603C-1.02995 41.5603 1.40005 34.6503 7.12005 28.8803C7.66005 28.3403 8.18005 27.7903 8.71005 27.2403L9.21005 26.7603C9.40005 26.4103 9.29005 25.7603 10.03 25.9503L11.03 24.9503C11.03 24.6303 11.13 24.4903 11.45 24.5403C12.428 23.684 13.3562 22.7725 14.23 21.8103C14.33 21.3603 14.39 20.8603 15.05 20.9503C15.6646 20.5072 16.225 19.9937 16.72 19.4203C19.72 16.5403 22.61 13.6403 25.55 10.7403C25.6644 10.6238 25.7713 10.5002 25.87 10.3703C25.8972 10.2927 25.9421 10.2224 26.0011 10.1652C26.0601 10.1079 26.1317 10.0651 26.21 10.0403C26.72 9.24028 27.59 8.80028 28.15 8.04028C29.3105 7.09824 30.4094 6.08283 31.44 5.00028C32.93 3.60028 34.37 2.14028 35.82 0.700284C36.28 0.230284 36.76 -0.169716 37.47 0.110284C38.18 0.390284 38.25 1.02028 38.26 1.67028C38.26 2.79028 38.26 3.91028 38.31 5.02028" fill="#69F3B3"/>
<path d="M38.4599 36.8603V23.0003C38.4599 21.6403 38.7999 21.3103 40.1499 21.2903C43.4716 21.0811 46.8044 21.4499 49.9999 22.3803C55.2564 24.1074 59.7242 27.6533 62.5999 32.3803C63.3615 33.7267 64.0524 35.1119 64.6699 36.5303C65.3241 38.5289 65.7698 40.5899 65.9999 42.6803C66.3634 46.0448 65.9622 49.448 64.8263 52.6358C63.6904 55.8236 61.8491 58.7137 59.4399 61.0903C54.1299 66.5003 48.6499 71.7503 43.2499 77.0903L30.3699 89.7403C29.8799 90.2403 29.3699 90.6203 28.6499 90.3003C27.9299 89.9803 27.9299 89.3003 27.9299 88.7003V69.8903C27.9299 69.4803 27.9799 69.0703 27.9999 68.6603C28.2044 68.0392 28.5702 67.4835 29.0599 67.0503C33.5499 62.5103 38.1699 58.1103 42.7199 53.6403C45.0499 51.3403 47.3299 48.9903 49.7199 46.7603C51.9499 44.6703 54.0999 42.5103 56.2599 40.3503C56.6699 39.9403 57.2599 39.5403 57.0199 38.8403C56.7799 38.1403 56.0199 38.2703 55.3799 38.2703C50.3799 38.2703 45.2899 38.2703 40.2399 38.2703C39.9146 38.3131 39.5837 38.2784 39.2743 38.1689C38.965 38.0594 38.6859 37.8782 38.4599 37.6403C38.2599 37.3903 38.0999 37.1403 38.4599 36.8703" fill="#69F3B3"/>
</g>
</g>
<defs>
<clipPath id="clip0_8_115">
<rect width="334.46" height="90.42" fill="white"/>
</clipPath>
</defs>
</svg>
