<?xml version="1.0" encoding="utf-8"?>
<!-- Generator: Adobe Illustrator 24.2.3, SVG Export Plug-In . SVG Version: 6.00 Build 0)  -->
<svg version="1.1" id="Слой_1" xmlns="http://www.w3.org/2000/svg" xmlns:xlink="http://www.w3.org/1999/xlink" x="0px" y="0px"
	 viewBox="0 0 163.95 44.32" style="enable-background:new 0 0 163.95 44.32;" xml:space="preserve">
<style type="text/css">
	.st0{clip-path:url(#SVGID_2_);fill:#023047;}
	.st1{fill:#023047;}
	.st2{clip-path:url(#SVGID_4_);fill:#023047;}
</style>
<g>
	<defs>
		<rect id="SVGID_1_" y="0" width="163.95" height="44.32"/>
	</defs>
	<clipPath id="SVGID_2_">
		<use xlink:href="#SVGID_1_"  style="overflow:visible;"/>
	</clipPath>
	<path class="st0" d="M125.82,19.61c-0.32-2.91-1.3-3.8-4.17-3.77c-1.05,0.01-2.12,0.08-3.14,0.3c-1.49,0.33-2.44,1.38-2.52,2.87
		c-0.12,2.17-0.15,4.36,0.04,6.53c0.18,2.06,1.12,2.88,3.15,3.32c1.57,0.34,5.07,0.25,6.55-0.19v-3.94h-4.27v-2.62h7.39v3.66
		c0,1.51,0.02,3.03-0.03,4.54c-0.01,0.26-0.3,0.69-0.52,0.74c-3.18,0.63-6.38,0.94-9.61,0.47c-3.67-0.53-5.33-2.22-5.71-5.96
		c-0.2-1.98-0.23-4-0.09-5.98c0.26-3.78,2.09-5.76,5.86-6.23c1.81-0.22,3.72-0.16,5.53,0.11c2.95,0.45,4.53,2.5,4.53,5.37
		c0,0.59-0.17,0.82-0.78,0.78C127.3,19.58,126.58,19.61,125.82,19.61"/>
	<path class="st0" d="M146.95,18.59c-0.19-3.12-1.63-4.79-4.76-5.01c-3.02-0.22-6.06-0.13-9.1-0.17c-0.08,0-0.17,0.06-0.29,0.1
		v18.01c0.66,0,1.26-0.05,1.86,0.01c0.9,0.1,1.24-0.17,1.18-1.13c-0.09-1.56-0.02-3.13-0.02-4.74c0.41,0,0.71-0.01,1,0
		c1.21,0.04,2.43,0.15,3.64,0.11C145.26,25.58,147.25,23.37,146.95,18.59 M143.89,20.21c-0.16,1.62-0.95,2.57-2.55,2.7
		c-1.79,0.14-3.61,0.03-5.47,0.03v-7.02l6.01,0.34c1.23,0.13,1.81,0.89,1.97,2.15C143.93,19,143.95,19.61,143.89,20.21"/>
	<path class="st0" d="M68.23,22.47c0.05-0.18,0.08-0.24,0.08-0.3c0.12-2.77-0.72-3.53-3.44-3.58c-2.07-0.03-4.14,0.28-6.36,0.44
		c0-0.58-0.03-1.32,0.02-2.05c0.01-0.15,0.31-0.35,0.51-0.39c2.86-0.68,5.76-0.9,8.66-0.34c2.22,0.43,3.38,1.64,3.46,3.93
		c0.13,3.68,0.04,7.38,0.04,11.07c0,0.05-0.05,0.1-0.11,0.2h-2.74c-0.03-0.48-0.06-0.93-0.09-1.53c-0.56,0.3-1.05,0.56-1.54,0.83
		c-2.19,1.2-4.49,1.04-6.81,0.53c-0.09-0.02-0.17-0.06-0.26-0.09c-1.73-0.74-2.5-2.46-2.29-5.08c0.16-2.05,1.07-3.2,2.95-3.64
		c2.25-0.52,4.52-0.39,6.79-0.11C67.48,22.41,67.84,22.43,68.23,22.47 M68.32,24.71c-2.23,0-4.34-0.1-6.44,0.04
		c-1.22,0.08-1.58,0.74-1.58,2.01c0,1.34,0.37,1.96,1.53,2.21c2.17,0.46,4.2-0.05,6.15-0.99c0.17-0.08,0.32-0.37,0.33-0.56
		C68.34,26.58,68.32,25.73,68.32,24.71"/>
	<path class="st0" d="M95.17,24.87H84.51c-0.54,2.17,0.53,3.74,2.66,4.08c2.19,0.34,4.36,0.17,6.51-0.28
		c0.32-0.07,0.65-0.14,1.09-0.23c0,0.79,0.04,1.51-0.03,2.22c-0.01,0.18-0.31,0.43-0.52,0.48c-2.93,0.67-5.89,0.9-8.85,0.18
		c-2.17-0.53-3.54-1.97-3.76-4.17c-0.2-2.07-0.27-4.18-0.07-6.24c0.29-2.97,1.7-4.39,4.67-4.81c1.54-0.22,3.17-0.21,4.71,0
		c2.7,0.37,3.88,1.62,4.2,4.34C95.3,21.82,95.17,23.25,95.17,24.87 M84.41,22.58h8.01c-0.07-0.69-0.12-1.25-0.19-1.82
		c-0.14-1.15-0.78-1.9-1.91-2.14c-0.67-0.15-1.38-0.21-2.07-0.19C85.37,18.53,84.19,19.79,84.41,22.58"/>
	<path class="st0" d="M54.31,16.56c-1.26-0.21-2.41-0.52-3.57-0.58c-1.53-0.08-3.09-0.08-4.61,0.08c-1.34,0.14-1.9,0.89-1.95,2.11
		c-0.05,1.39,0.33,2,1.75,2.34c1.81,0.44,3.68,0.69,5.49,1.14c2.68,0.67,3.55,1.89,3.56,4.7c0.01,2.75-1.06,4.32-3.59,4.96
		c-3.17,0.8-6.33,0.48-9.46-0.33c-0.22-0.06-0.51-0.37-0.53-0.58c-0.07-0.68-0.03-1.37-0.03-2.17c0.77,0.16,1.4,0.36,2.06,0.41
		c2.02,0.14,4.04,0.34,6.06,0.29c1.96-0.05,2.78-1.33,2.35-3.24c-0.19-0.85-0.83-1.28-1.58-1.46c-1.44-0.34-2.9-0.58-4.36-0.86
		c-0.24-0.05-0.48-0.09-0.72-0.13c-3.8-0.62-4.64-3.18-3.81-6.72c0.33-1.42,1.43-2.33,2.81-2.75c3.2-0.97,6.42-0.7,9.62,0.07
		c0.2,0.05,0.46,0.33,0.48,0.52C54.34,15.06,54.31,15.78,54.31,16.56"/>
	<path class="st0" d="M97.86,28.65c2.21,0.17,4.29,0.34,6.37,0.46c0.48,0.03,0.97-0.06,1.44-0.16c1.06-0.22,1.46-0.67,1.5-1.63
		c0.04-1.14-0.26-1.62-1.42-1.87c-1.63-0.35-3.29-0.54-4.91-0.9c-2.41-0.53-3.25-1.6-3.28-3.97c-0.03-2.42,0.97-3.83,3.28-4.35
		c2.78-0.62,5.56-0.36,8.31,0.24c0.22,0.05,0.51,0.36,0.54,0.57c0.07,0.65,0.03,1.32,0.03,2.1c-0.69-0.15-1.27-0.35-1.85-0.39
		c-1.81-0.11-3.62-0.21-5.43-0.19c-1.29,0.01-1.88,0.7-1.89,1.84c-0.01,0.85,0.34,1.4,1.19,1.56c1.43,0.27,2.86,0.52,4.3,0.79
		c0.18,0.03,0.36,0.06,0.53,0.1c3.42,0.77,3.82,2.35,3.44,5.57c-0.17,1.45-1.21,2.37-2.59,2.77c-3.04,0.89-6.08,0.55-9.1-0.13
		c-0.18-0.04-0.4-0.35-0.42-0.55C97.83,29.88,97.86,29.21,97.86,28.65"/>
</g>
<polygon class="st1" points="148.07,13.45 148.07,16.03 154.48,16.03 154.48,31.47 157.54,31.47 157.54,15.96 163.95,15.96 
	163.95,13.45 "/>
<rect x="75.18" y="11.52" class="st1" width="2.82" height="19.93"/>
<g>
	<defs>
		<rect id="SVGID_3_" y="0" width="163.95" height="44.32"/>
	</defs>
	<clipPath id="SVGID_4_">
		<use xlink:href="#SVGID_3_"  style="overflow:visible;"/>
	</clipPath>
	<path class="st2" d="M18.78,2.45c-0.01-0.55-0.02-1.09-0.02-1.64c0-0.32-0.04-0.63-0.39-0.76s-0.58,0.06-0.81,0.29
		c-0.71,0.71-1.42,1.42-2.14,2.11c-0.49,0.47-0.94,0.97-1.48,1.39l-0.76,0.75c-0.11,0.1-0.23,0.2-0.31,0.33
		C12.79,4.95,12.72,5,12.69,5.08c-0.05,0.06-0.1,0.13-0.15,0.18C11.1,6.69,9.66,8.11,8.21,9.52c-0.26,0.26-0.5,0.56-0.82,0.75
		c0,0,0,0,0,0l-0.4,0.39c0,0.01-0.01,0.02-0.01,0.03c-0.43,0.47-0.88,0.92-1.36,1.34c-0.02,0-0.02,0.01-0.03,0.01L5.43,12.2
		c0,0.01-0.01,0.02-0.01,0.03c-0.17,0.16-0.34,0.33-0.51,0.49c-0.01,0-0.01,0-0.02,0l-0.37,0.37c0,0.01-0.01,0.02-0.01,0.03
		c-0.08,0.08-0.16,0.16-0.24,0.23c-0.26,0.27-0.52,0.54-0.78,0.81c-2.8,2.83-3.99,6.21-3.29,10.14c0.72,4.05,2.99,7,6.77,8.71
		c1.91,0.87,3.95,0.97,6.01,0.91c0.3-0.01,0.5-0.17,0.61-0.44c0.15-0.2,0.19-0.43,0.19-0.68c-0.01-0.37,0-0.75,0-1.12
		c0-1.7,0.01-3.4,0-5.09c0-0.7-0.3-0.99-1.01-1c-0.17,0-0.35,0-0.52,0c-2.33,0-4.65,0-6.98,0c-0.29,0-0.63,0.07-0.77-0.27
		c-0.14-0.34,0.16-0.53,0.36-0.74c1.26-1.31,2.6-2.54,3.9-3.82c0.89-0.87,1.77-1.74,2.66-2.61c1.89-1.85,3.8-3.68,5.67-5.56
		c0.15-0.15,0.27-0.3,0.28-0.52c0.25-0.25,0.49-0.52,0.76-0.76c0.42-0.36,0.68-0.76,0.64-1.36c-0.05-0.86-0.02-1.73-0.01-2.6
		C18.76,5.71,18.71,4.08,18.78,2.45"/>
	<path class="st2" d="M32.36,20.92c-0.09-1.03-0.37-2.02-0.66-3c-0.33-0.68-0.6-1.39-1.01-2.03c-1.49-2.36-3.52-4.02-6.18-4.91
		c-1.57-0.53-3.2-0.58-4.83-0.55c-0.66,0.01-0.83,0.17-0.83,0.84c0,2.27,0,4.54,0,6.81c0,0,0,0.01,0,0.01v0.33
		c0.01,0.01,0.01,0.03,0.02,0.04c0.23,0.28,0.54,0.31,0.87,0.31c2.47,0,4.95,0,7.42,0c0.3,0,0.66-0.09,0.8,0.28
		c0.13,0.34-0.17,0.54-0.37,0.74c-1.06,1.06-2.11,2.12-3.21,3.14c-1.17,1.1-2.29,2.25-3.43,3.37c-2.23,2.19-4.5,4.35-6.69,6.58
		c-0.23,0.23-0.43,0.47-0.52,0.79c-0.01,0.2-0.03,0.4-0.03,0.6c-0.01,3.07-0.01,6.15-0.01,9.22c0,0.32,0.01,0.63,0.35,0.78
		c0.36,0.16,0.6-0.03,0.84-0.27c2.1-2.08,4.22-4.14,6.32-6.21c2.65-2.61,5.33-5.18,7.94-7.83C31.59,27.45,32.67,24.42,32.36,20.92"
		/>
</g>
</svg>
