<?xml version="1.0" encoding="utf-8"?>
<!-- Generator: Adobe Illustrator 24.2.3, SVG Export Plug-In . SVG Version: 6.00 Build 0)  -->
<svg version="1.1" id="Слой_1" xmlns="http://www.w3.org/2000/svg" xmlns:xlink="http://www.w3.org/1999/xlink" x="0px" y="0px"
	 viewBox="0 0 28.13 28.13" style="enable-background:new 0 0 28.13 28.13;" xml:space="preserve">
<style type="text/css">
	.st0{clip-path:url(#SVGID_2_);fill:#8197A3;}
</style>
<g>
	<defs>
		<rect id="SVGID_1_" width="28.13" height="28.13"/>
	</defs>
	<clipPath id="SVGID_2_">
		<use xlink:href="#SVGID_1_"  style="overflow:visible;"/>
	</clipPath>
	<path class="st0" d="M9.33,22.61H5.81V11.18h3.52V22.61z M18.41,10.94c1.12,0,2,0.26,2.64,0.78c1.04,0.6,1.56,2.29,1.56,5.08v5.81
		h-3.52v-5.37c0-0.74-0.05-1.39-0.15-1.95c-0.31-0.85-0.88-1.27-1.71-1.27c-1.43,0-2.15,0.99-2.15,2.98v5.61h-3.52V11.18h3.37v1.51
		h0.05C15.86,11.52,17,10.94,18.41,10.94 M5.57,7.23c0.36-1.14,1.04-1.71,2.05-1.71l0.49,0.1c1.01,0.37,1.51,1.01,1.51,1.9v0.29
		c-0.29,1.2-0.94,1.81-1.95,1.81H7.52c-1.11,0-1.78-0.68-2-2.05L5.57,7.23z M2.49,0.15C0.83,0.71,0,1.99,0,4v19.97l0.1,1.51
		c0.54,1.76,1.81,2.64,3.81,2.64h20.36c1.16,0,2-0.26,2.54-0.78c0.88-0.56,1.32-1.62,1.32-3.17V3.96c0-0.7-0.07-1.27-0.2-1.71
		C27.3,0.75,26.03,0,24.12,0H4.15C3.43,0,2.87,0.05,2.49,0.15"/>
</g>
</svg>
