<svg width="102" height="54" viewBox="0 0 102 54" fill="none" xmlns="http://www.w3.org/2000/svg">
<g clip-path="url(#clip0_11_598)">
<mask id="mask0_11_598" style="mask-type:luminance" maskUnits="userSpaceOnUse" x="0" y="11" width="102" height="32">
<path d="M101.5 11H0.5V43H101.5V11Z" fill="white"/>
</mask>
<g mask="url(#mask0_11_598)">
<mask id="mask1_11_598" style="mask-type:luminance" maskUnits="userSpaceOnUse" x="-16" y="-1" width="134" height="44">
<path d="M117.417 -0.636719H-15.0385V42.8542H117.417V-0.636719Z" fill="white"/>
</mask>
<g mask="url(#mask1_11_598)">
<path d="M63.1588 35.3685C57.3805 39.6255 49.0091 41.8849 41.7935 41.8849C31.6838 41.8849 22.584 38.1516 15.6888 31.9455C15.145 31.4607 15.6306 30.7916 16.2813 31.1698C23.7106 35.4849 32.8977 38.0837 42.3956 38.0837C48.7955 38.0837 55.8363 36.7649 62.3139 34.0207C63.2948 33.6037 64.1106 34.6607 63.1588 35.3685Z" fill="#B4B1C3"/>
</g>
<mask id="mask2_11_598" style="mask-type:luminance" maskUnits="userSpaceOnUse" x="-16" y="-1" width="134" height="44">
<path d="M117.417 -0.636719H-15.0385V42.8542H117.417V-0.636719Z" fill="white"/>
</mask>
<g mask="url(#mask2_11_598)">
<path d="M65.5576 32.6238C64.8195 31.6832 60.6727 32.1777 58.8178 32.4007C58.2545 32.4686 58.1671 31.9741 58.6721 31.625C61.974 29.3074 67.3931 29.9765 68.0243 30.7523C68.6556 31.5377 67.8592 36.9583 64.7612 39.5474C64.2854 39.945 63.8289 39.7316 64.0426 39.208C64.7418 37.4626 66.2957 33.5741 65.5576 32.6238Z" fill="#B4B1C3"/>
</g>
<mask id="mask3_11_598" style="mask-type:luminance" maskUnits="userSpaceOnUse" x="-16" y="-1" width="134" height="44">
<path d="M117.417 -0.636719H-15.0385V42.8542H117.417V-0.636719Z" fill="white"/>
</mask>
<g mask="url(#mask3_11_598)">
<path d="M58.944 15.2368V12.9774C58.944 12.638 59.2063 12.4053 59.517 12.4053H69.6365C69.9569 12.4053 70.2191 12.638 70.2191 12.9774V14.9071C70.2094 15.2271 69.9375 15.6538 69.4616 16.3228L64.2174 23.7992C66.1694 23.7507 68.2186 24.0416 69.9861 25.0307C70.3842 25.2538 70.4911 25.5835 70.5202 25.9132V28.318C70.5202 28.6477 70.1512 29.0356 69.7724 28.8319C66.6647 27.2028 62.5276 27.0283 59.0897 28.8513C58.7401 29.0453 58.3711 28.6574 58.3711 28.3374V26.0489C58.3711 25.6804 58.3808 25.0598 58.7401 24.4974L64.8098 15.7992H59.5267C59.2063 15.7992 58.944 15.5762 58.944 15.2368Z" fill="#B4B1C3"/>
</g>
<mask id="mask4_11_598" style="mask-type:luminance" maskUnits="userSpaceOnUse" x="-16" y="-1" width="134" height="44">
<path d="M117.417 -0.636719H-15.0385V42.8542H117.417V-0.636719Z" fill="white"/>
</mask>
<g mask="url(#mask4_11_598)">
<path d="M22.0499 29.3167H18.9713C18.68 29.2974 18.4469 29.0743 18.4178 28.7931V13.0161C18.4178 12.6961 18.68 12.4537 19.0102 12.4537H21.8848C22.1859 12.4634 22.4189 12.6961 22.4384 12.9774V15.0428H22.4966C23.2444 13.0549 24.6526 12.124 26.5463 12.124C28.4692 12.124 29.6735 13.0549 30.5378 15.0428C31.2856 13.0549 32.9754 12.124 34.7914 12.124C36.0831 12.124 37.4912 12.6574 38.3556 13.8501C39.3267 15.1786 39.1325 17.1083 39.1325 18.7955V28.7446C39.1325 29.0646 38.8703 29.3167 38.5401 29.3167H35.4615C35.1508 29.2974 34.908 29.0452 34.908 28.7446V20.3858C34.908 19.7168 34.9662 18.0586 34.8206 17.4283C34.5875 16.3713 33.898 16.0707 33.0142 16.0707C32.2664 16.0707 31.4895 16.5652 31.1787 17.3604C30.868 18.1555 30.8971 19.484 30.8971 20.3761V28.7349C30.8971 29.0549 30.6349 29.3071 30.3047 29.3071H27.2359C26.9251 29.2877 26.6823 29.0355 26.6823 28.7349V20.3761C26.6823 18.621 26.9737 16.0319 24.7886 16.0319C22.5743 16.0319 22.6617 18.5531 22.6617 20.3761V28.7349C22.6423 29.0549 22.3801 29.3167 22.0499 29.3167Z" fill="#B4B1C3"/>
</g>
<mask id="mask5_11_598" style="mask-type:luminance" maskUnits="userSpaceOnUse" x="-16" y="-1" width="134" height="44">
<path d="M117.417 -0.636719H-15.0385V42.8542H117.417V-0.636719Z" fill="white"/>
</mask>
<g mask="url(#mask5_11_598)">
<path d="M78.9498 15.3434C76.6773 15.3434 76.5414 18.4271 76.5414 20.3568C76.5414 22.2864 76.5122 26.398 78.9304 26.398C81.3194 26.398 81.4263 23.0816 81.4263 21.0549C81.4263 19.7264 81.368 18.1361 80.9698 16.8755C80.6202 15.7701 79.9307 15.3434 78.9498 15.3434ZM78.9304 12.124C83.4948 12.124 85.9713 16.0416 85.9713 21.0161C85.9713 25.8258 83.2423 29.6464 78.9304 29.6464C74.4437 29.6464 72.0061 25.7289 72.0061 20.8513C71.9964 15.9349 74.4728 12.124 78.9304 12.124Z" fill="#B4B1C3"/>
</g>
<mask id="mask6_11_598" style="mask-type:luminance" maskUnits="userSpaceOnUse" x="-16" y="-1" width="134" height="44">
<path d="M117.417 -0.636719H-15.0385V42.8542H117.417V-0.636719Z" fill="white"/>
</mask>
<g mask="url(#mask6_11_598)">
<path d="M91.8856 29.3167H88.8167C88.506 29.2974 88.2632 29.0452 88.2632 28.7446V12.9677C88.2923 12.6768 88.5448 12.4537 88.8556 12.4537H91.7108C91.9827 12.4634 92.1964 12.6477 92.2643 12.8901V15.3046H92.3226C93.1869 13.1519 94.3912 12.124 96.518 12.124C97.897 12.124 99.2469 12.6186 100.111 13.9858C100.917 15.2464 100.917 17.3701 100.917 18.8925V28.8222C100.878 29.1034 100.626 29.3167 100.325 29.3167H97.2366C96.955 29.2974 96.7219 29.084 96.6928 28.8222V20.2598C96.6928 18.5337 96.887 16.0125 94.7699 16.0125C94.0221 16.0125 93.3326 16.5168 92.9927 17.2731C92.5557 18.2331 92.5071 19.1931 92.5071 20.2598V28.7543C92.478 29.0549 92.2158 29.3167 91.8856 29.3167Z" fill="#B4B1C3"/>
</g>
<mask id="mask7_11_598" style="mask-type:luminance" maskUnits="userSpaceOnUse" x="-16" y="-1" width="134" height="44">
<path d="M117.417 -0.636719H-15.0385V42.8542H117.417V-0.636719Z" fill="white"/>
</mask>
<g mask="url(#mask7_11_598)">
<path d="M53.9912 29.2691C53.7872 29.4533 53.4959 29.463 53.2628 29.3466C52.2431 28.503 52.0586 28.1054 51.4953 27.3006C49.8055 29.0169 48.611 29.5309 46.4259 29.5309C43.8426 29.5309 41.8226 27.9406 41.8226 24.7406C41.8226 22.2484 43.1822 20.5515 45.1051 19.7175C46.7755 18.9806 49.1063 18.8545 50.8932 18.6509V18.2533C50.8932 17.526 50.9514 16.663 50.5241 16.023C50.1454 15.4606 49.4267 15.2181 48.7955 15.2181C47.6204 15.2181 46.5715 15.8194 46.319 17.0606C46.2705 17.3418 46.0665 17.6133 45.7849 17.623L42.7938 17.303C42.5413 17.2448 42.2693 17.0412 42.3373 16.663C43.0268 13.046 46.2899 11.96 49.2228 11.96C50.7184 11.96 52.6801 12.3575 53.8552 13.4921C55.3508 14.8884 55.2148 16.7503 55.2148 18.7769V23.5672C55.2148 25.0024 55.8072 25.6327 56.3705 26.4181C56.5744 26.6897 56.6133 27.0291 56.3608 27.2327C55.7295 27.766 54.6127 28.7357 53.9912 29.2691ZM50.8835 21.783V21.1139C48.6595 21.1139 46.3093 21.5891 46.3093 24.2072C46.3093 25.5357 46.9989 26.4278 48.1837 26.4278C49.048 26.4278 49.8249 25.8945 50.3105 25.0315C50.9126 23.9745 50.8835 22.9757 50.8835 21.783Z" fill="#B4B1C3"/>
</g>
<mask id="mask8_11_598" style="mask-type:luminance" maskUnits="userSpaceOnUse" x="-16" y="-1" width="134" height="44">
<path d="M117.417 -0.636719H-15.0385V42.8542H117.417V-0.636719Z" fill="white"/>
</mask>
<g mask="url(#mask8_11_598)">
<path d="M13.6397 29.2691C13.4358 29.4534 13.1444 29.4631 12.9114 29.3467C11.8916 28.5031 11.7071 28.1055 11.1439 27.3006C9.45405 29.017 8.25953 29.5309 6.07443 29.5309C3.49116 29.5309 1.47116 27.9406 1.47116 24.7406C1.47116 22.2485 2.83078 20.5515 4.75366 19.7176C6.42405 18.9806 8.75481 18.8546 10.5417 18.6509V18.2534C10.5417 17.5261 10.6 16.6631 10.1727 16.0231C9.79395 15.4606 9.0753 15.2182 8.44405 15.2182C7.26895 15.2182 6.2201 15.8194 5.9676 17.0606C5.91905 17.3418 5.7151 17.6134 5.43347 17.6231L2.44231 17.3128C2.18981 17.2546 1.91789 17.0509 1.98587 16.6728C2.67539 13.0558 5.93847 11.9697 8.87135 11.9697C10.3669 11.9697 12.3287 12.3673 13.5038 13.5018C14.9993 14.8982 14.8634 16.76 14.8634 18.7867V23.577C14.8634 25.0122 15.4558 25.6425 16.019 26.4279C16.223 26.6994 16.2618 27.0388 16.0093 27.2425C15.3781 27.7661 14.2613 28.7358 13.6397 29.2691ZM10.5417 21.7831V21.114C8.3178 21.114 5.9676 21.5891 5.9676 24.2073C5.9676 25.5358 6.65712 26.4279 7.84193 26.4279C8.70626 26.4279 9.48318 25.8946 9.96876 25.0315C10.5709 23.9746 10.5417 22.9758 10.5417 21.7831Z" fill="#B4B1C3"/>
</g>
</g>
</g>
<defs>
<clipPath id="clip0_11_598">
<rect width="101" height="54" fill="white" transform="translate(0.5)"/>
</clipPath>
</defs>
</svg>
