<svg width="88" height="88" viewBox="0 0 88 88" fill="none" xmlns="http://www.w3.org/2000/svg">
<g clip-path="url(#clip0_16_928)">
<path d="M43.655 84.9048C51.812 84.9068 59.7863 82.4898 66.5695 77.9595C73.3527 73.4292 78.6401 66.9891 81.763 59.4536C84.8859 51.9182 85.704 43.6259 84.1139 35.6254C82.5237 27.625 78.5968 20.2758 72.8297 14.5073C67.0625 8.73876 59.7143 4.81004 51.7143 3.21797C43.7142 1.6259 35.4217 2.44201 27.8855 5.56307C20.3493 8.68414 13.9079 13.97 9.37594 20.7521C4.84399 27.5342 2.42505 35.5079 2.42505 43.6648C2.42505 54.6006 6.76859 65.0887 14.5004 72.8224C22.2323 80.5561 32.7193 84.9022 43.655 84.9048Z" stroke="url(#paint0_linear_16_928)" stroke-width="4.85"/>
</g>
<defs>
<linearGradient id="paint0_linear_16_928" x1="-9.2268" y1="43.6648" x2="94.0784" y2="43.6648" gradientUnits="userSpaceOnUse">
<stop stop-color="#372681"/>
<stop offset="0.89" stop-color="#372681" stop-opacity="0"/>
</linearGradient>
<clipPath id="clip0_16_928">
<rect width="87.33" height="87.33" fill="white"/>
</clipPath>
</defs>
</svg>
