<svg width="80" height="54" viewBox="0 0 80 54" fill="none" xmlns="http://www.w3.org/2000/svg">
<g clip-path="url(#clip0_11_595)">
<mask id="mask0_11_595" style="mask-type:luminance" maskUnits="userSpaceOnUse" x="0" y="12" width="80" height="30">
<path d="M80 12H0V42H80V12Z" fill="white"/>
</mask>
<g mask="url(#mask0_11_595)">
<mask id="mask1_11_595" style="mask-type:luminance" maskUnits="userSpaceOnUse" x="-8" y="6" width="97" height="36">
<path d="M88.1854 6H-7.80487V41.9H88.1854V6Z" fill="white"/>
</mask>
<g mask="url(#mask1_11_595)">
<path d="M65.3853 14.46C58.6536 14.69 53.3854 20.47 53.6097 27.37C53.8341 34.27 59.4732 39.67 66.1951 39.44C72.9268 39.21 78.1951 33.43 77.9707 26.54C77.7561 19.97 72.6049 14.69 66.1951 14.47H65.3853V14.46ZM48.3122 14.46C41.5805 14.69 36.3122 20.47 36.5366 27.37C36.761 34.27 42.4 39.67 49.1317 39.44C55.8634 39.21 61.1317 33.43 60.9073 26.54C60.6927 19.97 55.5415 14.69 49.1317 14.47H48.3122V14.46ZM31.2488 14.46C24.5171 14.69 19.2488 20.47 19.4732 27.37C19.6975 34.27 25.3366 39.67 32.0585 39.44C38.7902 39.21 44.0585 33.43 43.8341 26.54C43.6195 19.97 38.4683 14.69 32.0585 14.47H31.2488V14.46ZM14.1854 14.46C7.45364 14.69 2.18535 20.47 2.40974 27.37C2.63413 34.27 8.27316 39.67 14.9951 39.44C21.7268 39.21 26.9951 33.43 26.7707 26.54C26.5561 19.97 21.4049 14.69 14.9951 14.47H14.1854V14.46Z" stroke="#B4B1C3" stroke-width="2.915"/>
</g>
</g>
</g>
<defs>
<clipPath id="clip0_11_595">
<rect width="80" height="54" fill="white"/>
</clipPath>
</defs>
</svg>
