<svg width="136" height="54" viewBox="0 0 136 54" fill="none" xmlns="http://www.w3.org/2000/svg">
<g clip-path="url(#clip0_11_599)">
<mask id="mask0_11_599" style="mask-type:luminance" maskUnits="userSpaceOnUse" x="0" y="14" width="136" height="26">
<path d="M136 14H0V40H136V14Z" fill="white"/>
</mask>
<g mask="url(#mask0_11_599)">
<mask id="mask1_11_599" style="mask-type:luminance" maskUnits="userSpaceOnUse" x="-16" y="2" width="168" height="38">
<path d="M151.899 2.85742H-15.3239V39.8796H151.899V2.85742Z" fill="white"/>
</mask>
<g mask="url(#mask1_11_599)">
<path d="M134.381 31.4479H134.085V32.2465H133.912V31.4479H133.615V31.3086H134.381V31.4479ZM135.081 32.005L135.349 31.3179H135.607V32.2465H135.435V31.485H135.425L135.128 32.2465H135.014L134.717 31.485H134.707V32.2465H134.535V31.3179H134.793L135.081 32.005Z" fill="#B4B1C3"/>
</g>
<mask id="mask2_11_599" style="mask-type:luminance" maskUnits="userSpaceOnUse" x="-16" y="2" width="168" height="38">
<path d="M151.899 2.85742H-15.3239V39.8796H151.899V2.85742Z" fill="white"/>
</mask>
<g mask="url(#mask2_11_599)">
<path d="M52.3887 19.572H56.0186V20.7792C56.4113 20.4542 57.6659 19.2842 59.9932 19.2842C62.7324 19.2842 64.9065 21.2435 64.9065 24.317V32.2935H61.0659V25.3013C61.0659 23.5928 60.2039 22.5713 58.6428 22.5713C57.1296 22.5713 56.2197 23.5278 56.2197 25.3013V32.2935H52.3887V19.572Z" fill="#B4B1C3"/>
</g>
<mask id="mask3_11_599" style="mask-type:luminance" maskUnits="userSpaceOnUse" x="-16" y="2" width="168" height="38">
<path d="M151.899 2.85742H-15.3239V39.8796H151.899V2.85742Z" fill="white"/>
</mask>
<g mask="url(#mask3_11_599)">
<path d="M88.9172 25.9328C88.9172 29.6006 91.9532 32.5813 95.9183 32.5813C99.8834 32.5813 102.919 29.6006 102.919 25.9328C102.919 22.2649 99.893 19.2842 95.9183 19.2842C91.9437 19.2842 88.9172 22.2649 88.9172 25.9328ZM92.7003 25.9328C92.7003 24.1778 94.0603 22.7292 95.9375 22.7292C97.8242 22.7292 99.1746 24.1685 99.1746 25.9328C99.1746 27.6878 97.8242 29.1363 95.9375 29.1363C94.0507 29.1363 92.7003 27.6878 92.7003 25.9328Z" fill="#B4B1C3"/>
</g>
<mask id="mask4_11_599" style="mask-type:luminance" maskUnits="userSpaceOnUse" x="-16" y="2" width="168" height="38">
<path d="M151.899 2.85742H-15.3239V39.8796H151.899V2.85742Z" fill="white"/>
</mask>
<g mask="url(#mask4_11_599)">
<path d="M36.2507 25.9323C36.2507 29.6001 39.2772 32.5808 43.2518 32.5808C47.2169 32.5808 50.253 29.6001 50.253 25.9323C50.253 22.2644 47.2265 19.2744 43.2518 19.2744C39.2772 19.2837 36.2507 22.2644 36.2507 25.9323ZM40.0338 25.9323C40.0338 24.1773 41.3842 22.7287 43.271 22.7287C45.1577 22.7287 46.5082 24.1773 46.5082 25.9323C46.5082 27.6873 45.1577 29.1358 43.271 29.1358C41.3938 29.1358 40.0338 27.6873 40.0338 25.9323Z" fill="#B4B1C3"/>
</g>
<mask id="mask5_11_599" style="mask-type:luminance" maskUnits="userSpaceOnUse" x="-16" y="2" width="168" height="38">
<path d="M151.899 2.85742H-15.3239V39.8796H151.899V2.85742Z" fill="white"/>
</mask>
<g mask="url(#mask5_11_599)">
<path d="M121.509 14.9287H125.398V18.1694H121.509V14.9287ZM121.509 19.5716H125.398V32.293H121.509V19.5716Z" fill="#B4B1C3"/>
</g>
<mask id="mask6_11_599" style="mask-type:luminance" maskUnits="userSpaceOnUse" x="-16" y="2" width="168" height="38">
<path d="M151.899 2.85742H-15.3239V39.8796H151.899V2.85742Z" fill="white"/>
</mask>
<g mask="url(#mask6_11_599)">
<path d="M132.284 14.9287H128.395V32.293H132.284V14.9287Z" fill="#B4B1C3"/>
</g>
<mask id="mask7_11_599" style="mask-type:luminance" maskUnits="userSpaceOnUse" x="-16" y="2" width="168" height="38">
<path d="M151.899 2.85742H-15.3239V39.8796H151.899V2.85742Z" fill="white"/>
</mask>
<g mask="url(#mask7_11_599)">
<path d="M108.848 32.293L108.886 31.318C109.154 31.513 110.361 32.5901 112.87 32.5901C116.175 32.5901 119.249 29.7209 119.249 25.9416C119.249 22.1623 116.366 19.2837 112.918 19.2837C110.285 19.2837 109.068 20.4537 108.886 20.5837V14.9287H105.161V32.293H108.848ZM115.313 25.923C115.313 27.7151 113.895 29.108 112.037 29.108C110.16 29.108 108.752 27.7151 108.752 25.9323C108.752 24.1216 110.179 22.7473 112.047 22.7473C113.914 22.7473 115.313 24.1401 115.313 25.923Z" fill="#B4B1C3"/>
</g>
<mask id="mask8_11_599" style="mask-type:luminance" maskUnits="userSpaceOnUse" x="-16" y="2" width="168" height="38">
<path d="M151.899 2.85742H-15.3239V39.8796H151.899V2.85742Z" fill="white"/>
</mask>
<g mask="url(#mask8_11_599)">
<path d="M13.6383 32.2931L19.7583 24.8738L14.347 19.5717H19.72L22.1144 21.9767L26.5296 16.4609H31.031L24.5662 24.3631L27.0851 26.8145L32.8986 19.5717H37.4096L29.5465 29.2102L39.5358 38.9509H34.0862L27.1425 32.0888L23.4456 36.7317H18.9346L24.7003 29.7302L22.1814 27.2602L18.1397 32.2931H13.6383Z" fill="#B4B1C3"/>
</g>
<mask id="mask9_11_599" style="mask-type:luminance" maskUnits="userSpaceOnUse" x="-16" y="2" width="168" height="38">
<path d="M151.899 2.85742H-15.3239V39.8796H151.899V2.85742Z" fill="white"/>
</mask>
<g mask="url(#mask9_11_599)">
<path d="M0.957748 14.9287H12.7476V18.1694H4.97071V21.763H12.4028V24.9016H4.97071V29.0523H12.7476V32.293H0.957748V14.9287Z" fill="#B4B1C3"/>
</g>
<mask id="mask10_11_599" style="mask-type:luminance" maskUnits="userSpaceOnUse" x="-16" y="2" width="168" height="38">
<path d="M151.899 2.85742H-15.3239V39.8796H151.899V2.85742Z" fill="white"/>
</mask>
<g mask="url(#mask10_11_599)">
<path d="M67.9713 14.9287H74.3115L77.2997 27.6037H77.4434L80.5082 14.9287H86.6665V32.293H82.893V19.1816H82.7206L79.3972 32.293H75.1639L71.9172 19.1816H71.7448V32.293H67.9713V14.9287Z" fill="#B4B1C3"/>
</g>
</g>
</g>
<defs>
<clipPath id="clip0_11_599">
<rect width="136" height="54" fill="white"/>
</clipPath>
</defs>
</svg>
