<svg width="68" height="54" viewBox="0 0 68 54" fill="none" xmlns="http://www.w3.org/2000/svg">
<g clip-path="url(#clip0_11_597)">
<mask id="mask0_11_597" style="mask-type:luminance" maskUnits="userSpaceOnUse" x="0" y="13" width="68" height="28">
<path d="M67.5 13.5H0.5V40.5H67.5V13.5Z" fill="white"/>
</mask>
<g mask="url(#mask0_11_597)">
<mask id="mask1_11_597" style="mask-type:luminance" maskUnits="userSpaceOnUse" x="-17" y="0" width="102" height="42">
<path d="M84.86 0.5H-16.5V41.86H84.86V0.5Z" fill="white"/>
</mask>
<g mask="url(#mask1_11_597)">
<path d="M66.53 27.18C66.53 33.79 52.98 39.28 34.17 39.28C15.37 39.28 1.81 33.79 1.81 27.18C1.81 20.57 15.38 15.08 34.17 15.08C52.97 15.07 66.53 20.57 66.53 27.18ZM67.86 40.86V13.5H0.5V40.85H67.85H67.86V40.86Z" fill="#B4B1C3"/>
</g>
<mask id="mask2_11_597" style="mask-type:luminance" maskUnits="userSpaceOnUse" x="-17" y="0" width="102" height="42">
<path d="M84.86 0.5H-16.5V41.86H84.86V0.5Z" fill="white"/>
</mask>
<g mask="url(#mask2_11_597)">
<path d="M61.33 22.7096C61.48 22.7196 61.62 22.5996 61.62 22.4496C61.62 22.2996 61.51 22.1596 61.36 22.1596H61.33H61.01V22.7196L61.33 22.7096ZM61.92 23.4996H61.66L61.35 22.9396H61.01V23.4996H60.78V21.9196H61.37C61.65 21.9296 61.86 22.1496 61.86 22.4296C61.86 22.6196 61.75 22.7996 61.58 22.8896L61.92 23.4996ZM62.32 22.7096C62.34 23.2896 61.88 23.7796 61.3 23.7896C60.72 23.8096 60.23 23.3496 60.22 22.7696V22.6996C60.2 22.1396 60.64 21.6696 61.2 21.6496H61.28C61.85 21.6396 62.32 22.0896 62.33 22.6596V22.7096M59.96 22.7096C59.94 23.4296 60.51 24.0396 61.24 24.0596C61.96 24.0796 62.57 23.5096 62.59 22.7796V22.7096C62.6 21.9896 62.04 21.4096 61.33 21.3996H61.28C60.57 21.3696 59.99 21.9196 59.97 22.6296C59.95 22.6496 59.95 22.6796 59.96 22.7096ZM14.18 22.7796C14.18 22.4896 14.18 22.2096 14.32 21.9196H7.71997C7.86997 22.2096 7.86997 22.4896 7.86997 22.7796V31.0596C7.86997 31.3496 7.86997 31.6296 7.71997 31.9196H14.32C14.18 31.6296 14.18 31.3496 14.18 31.0596V22.7796ZM54.82 28.2296L53.93 25.9096C53.85 25.6996 53.79 25.4796 53.74 25.2496C53.7 25.4696 53.64 25.6896 53.57 25.9096C53.54 26.0096 53.17 27.0196 52.73 28.2296H54.82ZM61.99 31.0596C62.09 31.3796 62.25 31.6696 62.46 31.9196H56.11C56.14 31.6296 56.03 31.3496 55.92 31.0596C55.92 31.0596 55.82 30.8296 55.69 30.4896L55.63 30.3496H51.97L51.91 30.4996C51.91 30.4996 51.8 30.7796 51.71 31.0696C51.61 31.3596 51.51 31.6396 51.55 31.9296H46.54C46.74 31.6796 46.9 31.3896 46.99 31.0696L49.99 22.7896C50.1 22.4996 50.2 22.2196 50.16 21.9296H58.63C58.55 22.2196 58.71 22.4996 58.81 22.7896C59.06 23.4096 61.77 30.4996 61.99 31.0596ZM45.75 21.9196H34.03C34.17 22.2096 34.17 22.4896 34.17 22.7796V31.0596C34.17 31.3496 34.17 31.6296 34.03 31.9196H45.75V29.1496C45.46 29.2896 45.18 29.2896 44.89 29.2896H39.96V27.9796H44.7V25.8696H39.96V24.5496H44.89C45.18 24.5496 45.46 24.5496 45.75 24.6896V21.9196ZM23.27 21.9196C23.12 22.2096 23.12 22.4896 23.12 22.7796V26.3996C23.12 26.3996 25.06 23.8796 25.5 23.2796C25.84 22.8396 26.25 22.2096 26.25 21.9196H32.58C32.15 22.2096 31.66 22.7296 31.27 23.2096C30.92 23.6296 28.95 26.0396 28.95 26.0396C28.95 26.0396 31.88 30.4896 32.25 31.0596C32.46 31.3696 32.69 31.6596 32.97 31.9196H25.68C25.68 31.6296 25.4 31.0396 25.09 30.5796C24.78 30.1196 23.11 27.5796 23.11 27.5796V31.0696C23.11 31.3596 23.11 31.6396 23.26 31.9296H17.2C17.34 31.6396 17.34 31.3596 17.34 31.0696V22.7896C17.34 22.4996 17.34 22.2196 17.2 21.9296H23.27V21.9196Z" fill="#B4B1C3"/>
</g>
</g>
</g>
<defs>
<clipPath id="clip0_11_597">
<rect width="67" height="54" fill="white" transform="translate(0.5)"/>
</clipPath>
</defs>
</svg>
