<svg width="94" height="54" viewBox="0 0 94 54" fill="none" xmlns="http://www.w3.org/2000/svg">
<mask id="mask0_11_596" style="mask-type:luminance" maskUnits="userSpaceOnUse" x="7" y="0" width="82" height="33">
<path d="M88.1023 0.427734H7.92017V32.1254H88.1023V0.427734Z" fill="white"/>
</mask>
<g mask="url(#mask0_11_596)">
<path d="M45.9474 30.9207C46.0166 30.9306 46.0758 30.9504 46.1449 30.9602L45.9474 30.9207ZM46.4807 31.0096C46.5597 31.0195 46.6288 31.0293 46.7078 31.0392L46.4807 31.0096ZM47.0534 31.0787C47.1324 31.0886 47.2015 31.0886 47.2805 31.0985L47.0534 31.0787ZM47.3595 31.1083C47.4188 31.1083 47.4879 31.1182 47.5471 31.1182L47.3595 31.1083ZM47.636 31.1182C47.715 31.1182 47.7841 31.1281 47.8631 31.1281L47.636 31.1182ZM47.9322 31.1281C48.0211 31.1281 48.1001 31.1281 48.189 31.1281C48.268 31.1281 48.3569 31.1281 48.4359 31.1281H47.9322ZM48.5148 31.1281C48.5938 31.1281 48.6728 31.1182 48.7518 31.1182L48.5148 31.1281ZM48.821 31.1182C48.8901 31.1182 48.9592 31.1083 49.0185 31.1083L48.821 31.1182ZM49.0975 31.0985C49.1666 31.0985 49.2456 31.0886 49.3147 31.0787L49.0975 31.0985ZM49.6899 31.0392C49.7492 31.0293 49.7986 31.0293 49.8578 31.0195L49.6899 31.0392ZM59.9596 12.1589C59.9003 12.1293 59.8312 12.0996 59.7719 12.07L59.9596 12.1589ZM59.3473 11.9318C59.2683 11.912 59.1893 11.9022 59.1103 11.8923L59.3473 11.9318ZM19.4044 20.029C19.0884 19.7327 18.9008 19.4069 18.802 19.1205C18.7033 18.8342 18.5749 18.4688 18.5749 18.1627C18.5848 16.7802 19.3846 15.7533 20.2635 15.2694C20.6585 15.0522 20.8066 14.904 20.8658 14.825C20.8362 14.8152 20.7967 14.8053 20.777 14.8053C19.592 14.8053 18.9896 14.3412 18.6835 13.9561C18.3972 13.5907 18.2589 13.1167 18.2589 12.6033C18.2589 12.3564 18.2885 12.0898 18.3577 11.8232C18.6934 11.2702 19.0094 11.4183 19.2069 11.7047C19.3353 11.8824 20.1746 12.4848 21.2213 12.5736C21.9817 12.6427 22.3865 13.018 22.6038 13.3142C22.8506 13.6598 22.9395 14.0746 22.9395 14.4301C22.9395 14.5782 22.9198 14.7066 22.8901 14.825C22.7716 15.2892 22.2878 15.7039 21.6064 16.2371L21.2213 16.5531C20.6585 17.0468 20.3425 17.5998 20.3425 18.0639C20.3425 18.1824 20.3622 18.2911 20.4017 18.3997C20.4215 18.4392 20.4412 18.4885 20.461 18.528C20.7177 18.9527 21.4287 19.2193 22.4655 18.8638C22.9494 18.6959 23.8677 18.1133 24.4306 17.5603C25.0922 16.8987 25.9809 16.7407 26.8301 16.6716C27.5707 16.6124 28.025 16.4346 28.3409 16.0791C29.2889 15.0127 30.1974 14.8645 31.0466 14.7954C31.3725 14.7757 31.3922 14.746 31.4317 14.6868C31.9057 14.0647 32.3895 13.729 32.8142 13.5413C33.14 13.3932 33.4461 13.3241 33.693 13.2747L33.9892 13.1957L34.0682 13.1661C34.5422 13.018 34.9076 12.8896 35.8753 12.2379L35.9148 12.2083L35.9543 12.1786L35.9938 12.1589L36.0333 12.1391L36.0728 12.1194L36.1123 12.0996L36.1518 12.0799L36.1913 12.0601L36.2308 12.0404L36.2703 12.0206L36.3098 12.0009L36.3493 11.991L36.3888 11.9811L36.4283 11.9713L36.4678 11.9614L36.5073 11.9515L36.5468 11.9416L36.5863 11.9318L36.6258 11.9219L36.6653 11.912L36.7048 11.9022L36.7443 11.8923L36.7838 11.8824H36.7936L36.8331 11.8725H36.8726H36.8825H36.922H36.9615H37.001H37.0405H37.0504H37.0899H37.1393H37.1788H37.1886H37.1985C37.2281 11.8725 37.2577 11.8725 37.2775 11.8725H37.317H37.3269H37.3664H37.4059H37.4157H37.4552H37.4651L37.5046 11.8824H37.5145L37.554 11.8923H37.5639L37.6034 11.9022H37.6132L37.6527 11.912H37.6626L37.7021 11.9219H37.712L37.7515 11.9318H37.7614C37.8206 11.9416 37.8799 11.9515 37.9292 11.9713L37.9687 11.9811H37.9786C38.0378 11.991 38.0872 12.0108 38.1465 12.0305L38.1761 12.0404H38.186C38.2946 12.07 38.4032 12.1095 38.502 12.149L38.5316 12.1589L38.5711 12.1688C40.6349 9.36437 43.9034 7.49806 47.6064 7.33019C47.6656 7.33019 47.7249 7.33019 47.794 7.32031C47.8533 7.32031 47.9125 7.32031 47.9717 7.32031C48.031 7.32031 48.0902 7.32031 48.1594 7.32031C48.2186 7.32031 48.2779 7.32031 48.3371 7.32031C48.3964 7.32031 48.4556 7.32031 48.5148 7.32031C48.5741 7.32031 48.6333 7.33019 48.6926 7.33019C48.7518 7.33019 48.8111 7.34006 48.8703 7.34006C52.4548 7.5573 55.6246 9.36437 57.6588 12.07C57.955 11.9713 58.2611 11.8923 58.587 11.8725H58.5969H58.6265H58.6561H58.666H58.6759H58.7055H58.7154H58.745H58.7549H58.7845H58.7944H58.824H58.8339H58.8734H58.903H58.9129H58.9425H58.9524H58.982H58.9919H59.0215H59.0314H59.061H59.0709C59.1498 11.8824 59.2288 11.8923 59.3078 11.912L59.3473 11.9219L59.3868 11.9318H59.3967L59.4263 11.9416L59.4658 11.9515L59.5053 11.9614L59.535 11.9713L59.5745 11.9811L59.614 11.991L59.6535 12.0009L59.693 12.0108L59.7325 12.0206C59.7917 12.0503 59.8608 12.0799 59.9201 12.1095L59.9596 12.1293L59.9991 12.149L60.0386 12.1688L60.0781 12.1885L60.1176 12.2083C60.7792 12.6625 61.1643 12.86 61.4901 12.9884C61.6383 13.0476 61.7765 13.0871 61.9148 13.1365L61.9937 13.1661L62.2999 13.2451C62.4677 13.2846 62.6554 13.3241 62.8528 13.3932C63.3565 13.5611 63.9687 13.8771 64.5612 14.6671C64.6007 14.7263 64.6204 14.746 64.9463 14.7757C65.7955 14.8448 66.704 14.9929 67.6519 16.0594C67.9679 16.4149 68.4221 16.6025 69.1627 16.6519C70.0218 16.721 70.9007 16.879 71.5623 17.5406C72.1251 18.1034 73.0435 18.6762 73.5273 18.844C74.5642 19.2094 75.285 18.9329 75.5319 18.5083C75.5813 18.4194 75.6208 18.3207 75.6405 18.2121C75.6504 18.1528 75.6504 18.1034 75.6504 18.0442C75.6504 17.5801 75.3344 17.0271 74.7715 16.5334L74.7024 16.4741L74.3864 16.2174C73.7051 15.6841 73.2212 15.2694 73.1027 14.8053C73.0731 14.6868 73.0632 14.5486 73.0632 14.4103C73.0632 14.0548 73.162 13.6401 73.399 13.2945C73.6162 12.9982 74.0309 12.623 74.7814 12.5539C75.8281 12.4551 76.6774 11.8528 76.7958 11.6849C76.9933 11.4084 77.3093 11.2504 77.6451 11.8034C77.7142 12.07 77.7537 12.3268 77.7537 12.5835C77.7537 13.097 77.6056 13.571 77.3291 13.9363C77.0328 14.3214 76.4206 14.7855 75.2357 14.7855C75.206 14.7855 75.1764 14.7954 75.1468 14.8053C75.206 14.8843 75.3542 15.0324 75.7491 15.2497C76.6181 15.7236 77.4278 16.7506 77.4377 18.1429C77.4377 18.449 77.3093 18.8144 77.2106 19.1008C77.1217 19.3476 76.9736 19.6439 76.707 19.9105C76.6773 19.9401 76.6477 19.9697 76.6082 19.9994C76.1244 20.4536 75.3048 20.8091 73.9421 20.7301C73.8038 20.7202 73.6656 20.7103 73.5175 20.6906C73.478 21.3818 73.2904 22.1915 73.0336 22.6063C72.9546 22.7346 72.9349 22.8235 72.9349 22.863C72.9349 22.8828 72.9349 22.8926 72.9349 22.9025C72.9447 22.9025 73.5372 23.258 73.5372 23.258L73.636 23.3074L73.6952 23.337C73.7051 23.337 73.9026 23.3271 73.9026 23.3271L73.9421 23.3172C74.3173 23.2777 74.8802 23.1 75.127 23.7715C75.1962 23.9492 75.2258 24.1072 75.2653 24.2455C75.3443 24.5318 75.4035 24.7392 75.6504 24.9268C75.6504 24.9268 75.7689 24.8182 75.9071 24.6997C76.0158 24.601 76.1441 24.4825 76.2231 24.4133C76.391 24.2356 76.7169 24.3245 76.944 24.4133C77.181 24.5022 77.4673 24.6997 77.6648 24.8182C77.8722 24.9367 77.9808 25.0749 78.0401 25.2527C78.0993 25.4205 78.2375 25.539 78.4548 25.6575C78.6622 25.776 78.9683 26.1611 78.9683 26.6746C78.9683 26.7536 78.9782 26.8227 78.9979 26.8919C79.0176 26.9412 79.0374 26.9906 79.067 27.04C79.3633 27.6325 79.1263 27.9287 78.9584 28.0472C78.7313 28.2151 78.3264 28.2842 77.9512 28.2249V28.3237L77.3982 28.2546C77.181 28.2249 76.9045 28.2842 76.7366 28.3138L76.6971 28.3237C76.3021 28.4027 75.7886 28.2644 75.5023 27.8003C75.4924 27.7806 75.4825 27.7707 75.4726 27.751C75.3245 27.4942 75.0974 27.2572 74.9888 27.1881C74.8308 27.2375 74.5741 27.2967 74.2679 27.2572C73.9816 27.2276 73.6656 27.119 73.3298 26.8425C73.2706 26.7931 73.2212 26.7438 73.162 26.6944C72.6781 26.2105 72.0363 26.1118 71.6314 26.171L71.3944 26.2105C70.9007 26.2994 70.2786 26.4179 69.7058 26.0624C69.5577 25.9735 69.3602 25.8847 69.1529 25.7958C68.6295 25.5687 68.0963 25.3317 68.0173 24.8478C68.0074 24.7589 67.9087 24.601 67.8297 24.4726C67.7605 24.3541 67.6815 24.2356 67.6322 24.1072C67.5729 23.9788 67.5334 23.8505 67.5334 23.7024C67.3656 23.7419 67.1977 23.7616 67.0101 23.7517C66.9508 23.7517 66.8916 23.7419 66.8225 23.732L66.5953 23.7024C66.2102 23.6332 65.4203 23.5049 65.1635 23.6036C64.6599 23.7814 63.0701 23.8702 62.6356 23.7715C62.6356 23.7715 62.4776 23.7419 62.3196 23.7024C62.1715 23.8505 62.0135 23.9887 61.8456 24.1171C62.1616 24.1368 62.448 24.0973 62.6356 24.1467L63.0405 24.2553C63.1688 24.2158 63.4848 24.2257 63.6626 24.2356L64.1267 24.2751L64.6599 24.3245C64.9166 24.3738 65.1931 24.4825 65.1438 24.9959C65.124 25.1539 65.0351 25.3712 64.9068 25.4995C64.8376 25.5785 64.5513 25.9834 64.492 26.1118L64.4723 26.1513C64.3637 26.3883 64.2057 26.5956 63.7317 26.5956C63.6724 26.5956 63.5934 26.5956 63.5539 26.6055C63.5441 26.645 63.5046 26.7141 63.5046 26.7141C63.3959 26.9511 63.2478 27.2869 62.9516 27.4843L62.8726 27.5436C62.6356 27.7115 62.2505 27.988 61.6481 27.7707L61.4408 27.7016C60.9174 27.514 60.1274 27.2276 59.7325 27.0104L59.6732 26.9807C59.298 26.7734 59.219 26.7339 59.0906 26.7536L59.0116 26.7635C58.7252 26.803 58.192 26.8721 57.8168 26.2599L57.7871 26.2105C56.0295 28.6199 53.3929 30.348 50.3417 30.9109H50.3318C50.233 30.9306 50.1244 30.9504 50.0158 30.9602L49.9763 30.9701L49.8282 30.9899C49.7689 30.9997 49.7196 31.0096 49.6603 31.0096L49.5616 31.0195L49.4036 31.0392L49.2949 31.0491C49.2258 31.059 49.1468 31.059 49.0777 31.0688L49.0086 31.0787C48.9395 31.0787 48.8703 31.0886 48.8111 31.0886H48.742C48.663 31.0886 48.584 31.0985 48.505 31.0985H48.426C48.347 31.0985 48.2581 31.0985 48.1791 31.0985C48.0902 31.0985 48.0112 31.0985 47.9224 31.0985H47.8434C47.7644 31.0985 47.6953 31.0886 47.6163 31.0886H47.5274C47.4681 31.0886 47.399 31.0787 47.3398 31.0787L47.2608 31.0688C47.1818 31.059 47.1127 31.059 47.0337 31.0491L46.925 31.0392L46.7769 31.0195L46.7078 31.0392C46.6288 31.0293 46.5498 31.0195 46.4807 31.0096L46.3918 30.9899L46.2239 30.9602L46.1351 30.9504C46.0659 30.9405 46.0067 30.9306 45.9376 30.9109L45.7993 30.8812L45.7302 30.8714C45.6315 30.8516 45.5327 30.8319 45.4438 30.8022L45.4142 30.7924L45.2661 30.7529L45.1871 30.7331C45.0982 30.7134 45.0094 30.6837 44.9205 30.664L44.8909 30.6541C42.2148 29.8839 39.9338 28.1953 38.3933 25.9637L38.186 26.2698C37.8206 26.882 37.2874 26.8129 36.9911 26.7734L36.9121 26.7635C36.7739 26.7438 36.6949 26.7832 36.3295 26.9906L36.2703 27.0202C35.8753 27.2375 35.0853 27.5238 34.562 27.7115L34.3546 27.7806C33.7522 27.9978 33.3671 27.7213 33.1301 27.5535L33.0511 27.4942C32.7549 27.2967 32.6068 26.9709 32.4982 26.724C32.4982 26.724 32.4587 26.6549 32.4488 26.6154C32.3994 26.6055 32.3303 26.6055 32.271 26.6055C31.8069 26.6055 31.6391 26.3883 31.5305 26.1611L31.5107 26.1216C31.4515 25.9933 31.175 25.5884 31.096 25.5094C30.9676 25.381 30.8787 25.1638 30.859 25.0058C30.8096 24.5022 31.0861 24.3837 31.3428 24.3343L31.8761 24.285L32.35 24.2455C32.5278 24.2257 32.8339 24.2257 32.9623 24.2652L33.3671 24.1566C33.5548 24.1072 33.8411 24.1467 34.1571 24.127C33.9892 23.9986 33.8312 23.8604 33.6831 23.7122C33.5251 23.7419 33.3671 23.7814 33.3671 23.7814C32.9327 23.8801 31.3428 23.7912 30.8392 23.6135C30.5825 23.5246 29.7826 23.653 29.4074 23.7122L29.1803 23.7419C28.9334 23.7814 28.6964 23.7616 28.4792 23.7122C28.4693 23.9986 28.3113 24.2652 28.1829 24.4825C28.1039 24.6108 28.0052 24.7688 27.9953 24.8577C27.9262 25.3514 27.3831 25.5785 26.8597 25.8057C26.6622 25.8945 26.4549 25.9834 26.3166 26.0723C25.7439 26.4179 25.1218 26.3093 24.6281 26.2204L24.3911 26.1809C23.9862 26.1216 23.3444 26.2204 22.8605 26.7043C22.11 27.4449 21.3694 27.2869 21.0337 27.1881C20.9251 27.2572 20.6881 27.4942 20.5498 27.751C20.2635 28.2644 19.7302 28.4027 19.3254 28.3237L19.2859 28.3138C19.118 28.2743 18.8415 28.2249 18.6243 28.2546L18.0713 28.3237L18.0812 28.2249C17.7059 28.2842 17.3011 28.2151 17.074 28.0472C16.9061 27.9188 16.6691 27.6226 16.9653 27.04C17.0345 26.9017 17.0542 26.803 17.0542 26.6648C17.0542 26.1513 17.3505 25.7662 17.5578 25.6477C17.7751 25.5292 17.9232 25.4205 17.9824 25.2428C18.0417 25.0651 18.1503 24.9268 18.3577 24.8083C18.565 24.6898 18.8514 24.4923 19.0785 24.4035C19.3056 24.3146 19.6315 24.2257 19.7994 24.4035C19.9771 24.5713 20.3721 24.9268 20.3721 24.9268C20.7375 24.6404 20.7078 24.3146 20.8955 23.7715C21.1324 23.1 21.7052 23.2777 22.0705 23.3172L22.11 23.3271C22.11 23.3271 22.3075 23.337 22.3174 23.337C22.3273 23.3271 22.3865 23.3074 22.3865 23.3074L22.4754 23.258C22.4754 23.258 23.0778 22.9124 23.0778 22.9025C23.0778 22.8926 23.0778 22.8828 23.0778 22.863C23.0778 22.8235 23.058 22.7346 22.979 22.6063C22.7124 22.1915 22.5248 21.3818 22.4951 20.6906C22.3964 20.7005 22.3075 20.7103 22.2187 20.7202C20.7671 20.8683 19.908 20.503 19.4044 20.029Z" fill="#B4B1C3"/>
</g>
<path d="M22.969 20.2247C22.969 20.2247 22.8505 21.3899 23.3739 22.4169C23.3739 22.4169 23.7689 22.9699 23.364 23.3254L22.5543 23.7895C22.5543 23.7895 22.4457 23.8685 22.0902 23.8388C22.0902 23.8388 21.5965 23.7203 21.4286 23.9376C21.4286 23.9376 21.2805 24.3622 21.1027 24.7078C21.1027 24.7078 20.7374 25.5472 20.1251 25.8236C20.1251 25.8236 19.6413 25.9323 19.4932 26.3569C19.4932 26.3569 19.3352 26.6531 19.0291 26.663C19.0291 26.663 18.7921 26.742 18.6439 27.2555C18.6439 27.2555 18.5551 27.5912 18.5649 27.8479C18.5649 27.8479 18.9599 27.7986 19.2167 27.8874C19.2167 27.8874 19.8585 28.1047 20.135 27.5813C20.135 27.5813 20.688 26.6432 21.0929 26.7815C21.0929 26.7815 21.9124 27.058 22.4951 26.4556C22.4951 26.4556 23.285 25.5867 24.4107 25.7644C24.4107 25.7644 25.6747 26.0211 26.0697 25.7249C26.0697 25.7249 26.8695 25.3102 27.1658 25.2015C27.1658 25.2015 27.5311 25.0929 27.5706 24.6979C27.5706 24.6979 27.7977 24.1351 27.9557 23.9475L27.3534 23.9376C27.3534 23.9376 26.8103 24.8559 25.8821 25.1324C25.8821 25.1324 25.3785 25.3398 24.3515 25.1719C24.3515 25.1719 22.89 24.8362 21.6063 26.2285C21.6063 26.2285 21.4286 26.4852 21.1817 26.3766C21.1817 26.3766 21.8927 25.162 23.4529 24.8757C23.4529 24.8757 23.9664 24.7671 24.391 24.8362C24.391 24.8362 26.4943 24.8954 27.462 22.8316C27.462 22.8316 27.3534 21.0739 27.8175 20.6493C27.8175 20.6493 27.9952 20.5901 27.9557 20.9357C27.9557 20.9357 27.6397 22.7823 28.2421 23.1377C28.2421 23.1377 28.5877 23.4142 29.2394 23.3155C29.2394 23.3155 30.217 23.0785 31.007 23.2167C31.007 23.2167 32.2315 23.5031 33.2782 23.3747C33.2782 23.3747 33.0017 22.96 33.0609 22.4564C33.0609 22.4564 33.2091 22.1009 33.3868 22.328C33.3868 22.328 33.7917 23.6611 34.8976 24.066C34.8976 24.066 35.8851 24.4214 35.8653 25.6755C35.8653 25.6755 35.7172 25.8434 34.4039 26.3075C34.4039 26.3075 33.92 26.4655 33.762 26.1001C33.762 26.1001 33.1301 24.7473 32.5771 24.7967L31.5501 24.8757C31.5501 24.8757 31.1946 24.9645 31.4612 25.2509C31.4612 25.2509 31.8167 25.7249 31.955 26.0014C31.955 26.0014 31.9945 26.2384 32.3302 26.189C32.3302 26.189 32.7943 25.9619 33.0511 26.8111C33.0511 26.8111 33.288 27.2357 33.6929 27.374C33.6929 27.374 34.0681 27.5023 34.4236 27.3048C34.4236 27.3048 36.1221 26.6827 36.4183 26.4556C36.4183 26.4556 36.7837 26.2483 37.0799 26.347C37.0799 26.347 37.5934 26.4655 37.8008 26.0705L38.3241 25.2509C38.3241 25.2509 38.4426 25.0534 38.4229 24.7967C38.4229 24.7967 38.4722 24.5498 38.2649 24.2931C38.2649 24.2931 38.0674 24.0857 38.0378 23.9277L37.6625 23.039C37.6625 23.039 37.5144 22.802 37.3465 22.7033L36.8429 22.7428C36.8429 22.7428 37.1885 23.6216 37.4453 23.987C37.4453 23.987 37.7909 24.5103 37.7711 24.8461C37.7711 24.8461 37.7514 25.083 37.6526 25.1818C37.6526 25.1818 37.5341 25.3694 37.4946 25.4583C37.4946 25.4583 37.3465 25.7841 37.2182 25.8631C37.2182 25.8631 37.0009 25.9915 36.9515 25.9915C36.9515 25.9915 36.8627 26.0211 36.9318 25.8533C36.9318 25.8533 37.2083 25.2608 37.1984 24.9448C37.1984 24.9448 37.2478 24.6189 37.0207 24.4214C37.0207 24.4214 36.4776 23.5623 36.3986 23.2957C36.3986 23.2957 36.2307 22.9501 36.1319 22.8909C36.1319 22.8909 35.9443 22.644 36.2504 22.5255C36.2504 22.5255 37.0207 22.3478 37.1589 22.2589C37.1589 22.2589 37.5243 22.1503 37.7711 21.38C37.7711 21.38 38.097 20.4815 38.097 19.9285C38.097 19.9285 38.7487 21.1727 37.7119 22.4465C37.7119 22.4465 38.5315 22.6835 38.8672 22.4465C38.8672 22.4465 39.8843 22.2984 40.0818 22.2391C40.0818 22.2391 40.3385 22.1799 40.1904 22.3576C40.1904 22.3576 39.8843 22.7921 39.8547 23.0785C39.8547 23.0785 39.8349 23.3056 39.6473 23.4439C39.6473 23.4439 39.0647 23.8487 39.0153 24.2338C39.0153 24.2338 38.887 24.6091 39.1437 24.5202C39.1437 24.5202 39.4893 24.3622 39.6177 24.5202C39.6177 24.5202 39.6572 24.5399 39.519 24.6881C39.519 24.6881 39.1733 24.9942 39.1437 25.399C39.1437 25.399 39.2128 25.8631 39.3313 26.0211C39.3313 26.0211 39.4893 26.2384 39.7362 26.1693C39.7362 26.1693 39.8053 26.1199 39.9238 26.1495C39.9238 26.1495 40.0423 26.1495 40.3682 26.0409C40.3682 26.0409 40.852 25.9026 41.01 25.8533C41.01 25.8533 41.6223 25.636 41.9284 25.6459C41.9284 25.6459 42.1259 25.6261 42.3826 25.6755C42.3826 25.6755 43.1528 25.7644 43.6663 25.1917C43.6663 25.1917 44.0613 24.8856 44.1897 25.1818C44.1897 25.1818 45.1278 26.4359 46.6484 26.11C46.6484 26.11 45.4437 25.6163 45.1278 24.9349C45.1278 24.9349 45.0883 24.3622 44.4563 23.5623C44.4563 23.5623 44.2588 23.2957 44.4464 23.2266C44.4464 23.2266 44.555 23.1476 44.792 23.3846C44.792 23.3846 45.3944 23.9573 45.6116 24.4906C45.6116 24.4906 46.3621 25.6163 47.4384 25.241C47.4384 25.241 46.5892 24.9152 46.1942 24.3128C46.1942 24.3128 45.9473 23.4932 45.1278 22.881C45.1278 22.881 45.0981 21.9528 44.713 21.4393C44.713 21.4393 44.5155 20.5703 44.4661 20.3728C44.4661 20.3728 44.2588 19.6125 44.2588 19.3952C44.2588 19.3952 44.3279 18.3979 43.6861 17.6277C43.6861 17.6277 43.2614 16.7982 42.59 16.2156C42.59 16.2156 42.0765 15.5836 41.7012 15.1985C41.7012 15.1985 41.2075 14.6159 40.1114 13.8556C40.1114 13.8556 39.6177 13.5001 39.2622 13.115C39.2622 13.115 37.3465 11.7325 35.9641 12.8385C35.9641 12.8385 35.0062 13.4902 34.2064 13.6877C34.2064 13.6877 32.5672 13.8753 31.8661 15.0208C31.8661 15.0208 31.8068 15.2281 31.1452 15.317C31.1452 15.317 29.6937 15.1393 28.6272 16.5711C28.6272 16.5711 28.1335 17.055 27.146 17.1734C27.146 17.1734 25.5364 17.0056 24.4996 18.2399C24.4996 18.2399 21.8631 20.5407 20.293 19.0496C20.293 19.0496 19.4833 18.2794 20.4115 16.8871C20.4115 16.8871 21.004 16.1761 22.0112 15.4256C22.0112 15.4256 22.8308 14.8529 22.4556 13.9543C22.4556 13.9543 22.2581 13.0853 21.0336 13.0656C21.0336 13.0656 19.4932 12.7694 18.8809 11.9893C18.8809 11.9893 18.1897 14.4382 20.9052 14.3888C20.9052 14.3888 21.6162 14.4974 21.3693 15.0603C21.3693 15.0603 21.0237 15.5441 20.5497 15.7219C20.5497 15.7219 19.7302 16.0774 19.3549 17.2821C19.3549 17.2821 18.5254 19.3755 20.5497 20.1852C21.2706 20.442 22.1692 20.363 22.969 20.2247ZM19.0685 25.1522C19.1772 25.0633 19.3352 25.004 19.4833 25.0435C19.8091 25.1127 19.6117 25.3892 19.6117 25.3892C19.4833 25.636 19.0587 26.0409 19.0587 26.0409C18.6834 26.3273 18.3773 25.9816 18.3773 25.9816C18.1008 25.7051 18.4662 25.5669 18.4662 25.5669C18.6736 25.4978 19.0685 25.1522 19.0685 25.1522ZM18.2588 26.4655C18.2588 26.4655 18.3773 26.5544 18.3181 26.7222C18.3181 26.7222 18.0218 27.5418 18.0317 27.8183C18.0317 27.8183 17.3701 27.9368 17.2714 27.611C17.2714 27.611 17.2516 27.4826 17.3602 27.3048C17.3602 27.3048 17.4689 27.137 17.4985 26.821C17.4985 26.821 17.4886 26.031 18.0021 26.2384C18.1107 26.2976 18.1897 26.3766 18.2588 26.4655ZM41.7111 24.7967C41.5926 24.7967 41.563 24.7473 41.5828 24.6189C41.6618 24.2634 41.9481 24.1055 41.9481 24.1055C42.4912 23.7796 42.5505 24.1055 42.5505 24.1055C42.6492 24.6782 42.195 24.7572 42.195 24.7572C42.0962 24.7868 41.7111 24.7967 41.7111 24.7967ZM43.3306 22.2293C43.3404 21.9627 43.3602 21.3603 43.0837 21.1431C42.985 21.0641 42.5801 20.6197 42.5801 20.6197C42.5208 20.5111 42.4715 20.5111 42.4715 20.5111C42.3925 20.5012 42.2839 20.6987 42.2839 20.6987C41.9975 21.2517 41.7111 21.1826 41.7111 21.1826C41.7111 21.0838 41.7802 20.9653 41.7802 20.9653C41.8592 20.8172 42.195 20.1655 42.195 20.1655C42.2345 20.0667 42.274 19.9482 42.274 19.9482C42.5505 19.5236 42.8072 19.8495 42.8072 19.8495C42.9257 20.0766 43.5379 20.8073 43.5379 20.8073C43.6762 20.9752 43.6861 21.1431 43.6861 21.1431C43.844 22.1404 43.3306 22.2293 43.3306 22.2293ZM37.6526 16.1366C37.5638 15.9885 37.6033 15.8305 37.6921 15.6824C37.8798 15.3861 38.0575 15.712 38.0575 15.712C38.7191 16.6303 38.2254 18.0128 38.2254 18.0128C38.1562 16.739 37.6526 16.1366 37.6526 16.1366Z" fill="#F0F2F7"/>
<path d="M73.0631 20.2247C73.0631 20.2247 73.1816 21.3899 72.6582 22.4169C72.6582 22.4169 72.2633 22.9699 72.6681 23.3254L73.4778 23.7895C73.4778 23.7895 73.5865 23.8685 73.942 23.8388C73.942 23.8388 74.4357 23.7203 74.6036 23.9376C74.6036 23.9376 74.7517 24.3622 74.9294 24.7078C74.9294 24.7078 75.2948 25.5472 75.907 25.8236C75.907 25.8236 76.3909 25.9323 76.539 26.3569C76.539 26.3569 76.697 26.6531 77.0031 26.663C77.0031 26.663 77.2401 26.742 77.3882 27.2555C77.3882 27.2555 77.4771 27.5912 77.4672 27.8479C77.4672 27.8479 77.0722 27.7986 76.8056 27.8874C76.8056 27.8874 76.1736 28.1047 75.8873 27.5813C75.8873 27.5813 75.3343 26.6432 74.9294 26.7815C74.9294 26.7815 74.1098 27.058 73.5272 26.4556C73.5272 26.4556 72.7372 25.5867 71.6115 25.7644C71.6115 25.7644 70.3476 26.0211 69.9526 25.7249C69.9526 25.7249 69.1527 25.3102 68.8565 25.2015C68.8565 25.2015 68.4911 25.0929 68.4517 24.6979C68.4517 24.6979 68.2344 24.1351 68.0665 23.9475L68.6689 23.9376C68.6689 23.9376 69.212 24.8559 70.1402 25.1324C70.1402 25.1324 70.6438 25.3398 71.6708 25.1719C71.6708 25.1719 73.1322 24.8362 74.4159 26.2285C74.4159 26.2285 74.5937 26.4852 74.8405 26.3766C74.8405 26.3766 74.1296 25.162 72.5694 24.8757C72.5694 24.8757 72.0559 24.7671 71.6313 24.8362C71.6313 24.8362 69.528 24.8954 68.5603 22.8316C68.5603 22.8316 68.6689 21.0739 68.2048 20.6493C68.2048 20.6493 68.027 20.5901 68.0567 20.9357C68.0567 20.9357 68.3727 22.7823 67.7802 23.1377C67.7802 23.1377 67.4346 23.4142 66.7828 23.3155C66.7828 23.3155 65.8052 23.0785 65.0153 23.2167C65.0153 23.2167 63.7908 23.5031 62.7441 23.3747C62.7441 23.3747 63.0206 22.96 62.9613 22.4564C62.9613 22.4564 62.8132 22.1009 62.6355 22.328C62.6355 22.328 62.2306 23.6611 61.1247 24.066C61.1247 24.066 60.1372 24.4214 60.1569 25.6755C60.1569 25.6755 60.3051 25.8434 61.6184 26.3075C61.6184 26.3075 62.1022 26.4655 62.2602 26.1001C62.2602 26.1001 62.8922 24.7473 63.4353 24.7967L64.4623 24.8757C64.4623 24.8757 64.8079 24.9645 64.5512 25.2509C64.5512 25.2509 64.1957 25.7249 64.0574 26.0014C64.0574 26.0014 64.0179 26.2384 63.6822 26.189C63.6822 26.189 63.2181 25.9619 62.9613 26.8111C62.9613 26.8111 62.7244 27.2357 62.3195 27.374C62.3195 27.374 61.9443 27.5023 61.5888 27.3048C61.5888 27.3048 59.8903 26.6827 59.5941 26.4556C59.5941 26.4556 59.2287 26.2483 58.9325 26.347C58.9325 26.347 58.419 26.4655 58.2116 26.0705L57.6883 25.2509C57.6883 25.2509 57.5698 25.0534 57.5895 24.7967C57.5895 24.7967 57.5402 24.5498 57.7475 24.2931C57.7475 24.2931 57.945 24.0857 57.9746 23.9277L58.3499 23.039C58.3499 23.039 58.498 22.802 58.6659 22.7033L59.1695 22.7428C59.1695 22.7428 58.8239 23.6216 58.5671 23.987C58.5671 23.987 58.2215 24.5103 58.2413 24.8461C58.2413 24.8461 58.261 25.083 58.3598 25.1818C58.3598 25.1818 58.4782 25.3694 58.5177 25.4583C58.5177 25.4583 58.6659 25.7841 58.7942 25.8631C58.7942 25.8631 59.0115 25.9915 59.0609 25.9915C59.0609 25.9915 59.1497 26.0211 59.0806 25.8533C59.0806 25.8533 58.8041 25.2608 58.814 24.9448C58.814 24.9448 58.7646 24.6189 58.9917 24.4214C58.9917 24.4214 59.5348 23.5623 59.6138 23.2957C59.6138 23.2957 59.7817 22.9501 59.8804 22.8909C59.8804 22.8909 60.0681 22.644 59.762 22.5255C59.762 22.5255 58.9917 22.3478 58.8535 22.2589C58.8535 22.2589 58.4881 22.1503 58.2413 21.38C58.2413 21.38 57.9154 20.4815 57.9154 19.9285C57.9154 19.9285 57.2637 21.1727 58.3005 22.4465C58.3005 22.4465 57.4809 22.6835 57.1452 22.4465C57.1452 22.4465 56.1281 22.2984 55.9306 22.2391C55.9306 22.2391 55.6738 22.1799 55.822 22.3576C55.822 22.3576 56.1281 22.7921 56.1577 23.0785C56.1577 23.0785 56.1775 23.3056 56.3651 23.4439C56.3651 23.4439 56.9477 23.8487 56.9971 24.2338C56.9971 24.2338 57.1254 24.6091 56.8687 24.5202C56.8687 24.5202 56.5231 24.3622 56.3947 24.5202C56.3947 24.5202 56.3552 24.5399 56.4934 24.6881C56.4934 24.6881 56.8391 24.9942 56.8687 25.399C56.8687 25.399 56.7996 25.8631 56.6811 26.0211C56.6811 26.0211 56.5231 26.2384 56.2762 26.1693C56.2762 26.1693 56.2071 26.1199 56.0886 26.1495C56.0886 26.1495 55.9701 26.1495 55.6442 26.0409C55.6442 26.0409 55.1604 25.9026 55.0024 25.8533C55.0024 25.8533 54.3901 25.636 54.084 25.6459C54.084 25.6459 53.8865 25.6261 53.6298 25.6755C53.6298 25.6755 52.8596 25.7644 52.3461 25.1917C52.3461 25.1917 51.9511 24.8856 51.8227 25.1818C51.8227 25.1818 50.8846 26.4359 49.3639 26.11C49.3639 26.11 50.5687 25.6163 50.8846 24.9349C50.8846 24.9349 50.9241 24.3622 51.5561 23.5623C51.5561 23.5623 51.7536 23.2957 51.566 23.2266C51.566 23.2266 51.4574 23.1476 51.2204 23.3846C51.2204 23.3846 50.618 23.9573 50.4008 24.4906C50.4008 24.4906 49.6503 25.6163 48.574 25.241C48.574 25.241 49.4232 24.9152 49.8182 24.3128C49.8182 24.3128 50.065 23.4932 50.8846 22.881C50.8846 22.881 50.9143 21.9528 51.2994 21.4393C51.2994 21.4393 51.4969 20.5703 51.5462 20.3728C51.5462 20.3728 51.7536 19.6125 51.7536 19.3952C51.7536 19.3952 51.6845 18.3979 52.3263 17.6277C52.3263 17.6277 52.7608 16.7982 53.4224 16.2156C53.4224 16.2156 53.9359 15.5836 54.3111 15.1985C54.3111 15.1985 54.8049 14.6159 55.901 13.8556C55.901 13.8556 56.3947 13.5001 56.7502 13.115C56.7502 13.115 58.6659 11.7325 60.0483 12.8385C60.0483 12.8385 61.0062 13.4902 61.806 13.6877C61.806 13.6877 63.4452 13.8753 64.1463 15.0208C64.1463 15.0208 64.2055 15.2281 64.8671 15.317C64.8671 15.317 66.3187 15.1393 67.3852 16.5711C67.3852 16.5711 67.8789 17.055 68.8664 17.1734C68.8664 17.1734 70.4661 17.0056 71.5128 18.2399C71.5128 18.2399 74.1493 20.5407 75.7194 19.0496C75.7194 19.0496 76.5291 18.2794 75.6009 16.8871C75.6009 16.8871 75.0084 16.1761 74.0012 15.4256C74.0012 15.4256 73.1816 14.8529 73.5568 13.9543C73.5568 13.9543 73.7543 13.0853 74.9788 13.0656C74.9788 13.0656 76.5192 12.7694 77.1315 11.9893C77.1315 11.9893 77.8227 14.4382 75.1072 14.3888C75.1072 14.3888 74.3962 14.4974 74.6431 15.0603C74.6431 15.0603 74.9887 15.5441 75.4627 15.7219C75.4627 15.7219 76.2822 16.0774 76.6575 17.2821C76.6575 17.2821 77.487 19.3755 75.4627 20.1852C74.7616 20.442 73.863 20.363 73.0631 20.2247ZM76.9537 25.1522C76.8451 25.0633 76.6871 25.004 76.539 25.0435C76.2131 25.1127 76.4106 25.3892 76.4106 25.3892C76.539 25.636 76.9636 26.0409 76.9636 26.0409C77.3388 26.3273 77.6449 25.9816 77.6449 25.9816C77.9214 25.7051 77.5561 25.5669 77.5561 25.5669C77.3586 25.4978 76.9537 25.1522 76.9537 25.1522ZM77.7733 26.4655C77.7733 26.4655 77.6548 26.5544 77.7239 26.7222C77.7239 26.7222 78.0202 27.5418 78.0103 27.8183C78.0103 27.8183 78.6719 27.9368 78.7707 27.611C78.7707 27.611 78.7904 27.4826 78.6818 27.3048C78.6818 27.3048 78.5732 27.137 78.5435 26.821C78.5435 26.821 78.5534 26.031 78.0399 26.2384C77.9214 26.2976 77.8424 26.3766 77.7733 26.4655ZM54.321 24.7967C54.4395 24.7967 54.4691 24.7473 54.4593 24.6189C54.3803 24.2634 54.0939 24.1055 54.0939 24.1055C53.5508 23.7796 53.4916 24.1055 53.4916 24.1055C53.3928 24.6782 53.847 24.7572 53.847 24.7572C53.9359 24.7868 54.321 24.7967 54.321 24.7967ZM52.6917 22.2293C52.6818 21.9627 52.6621 21.3603 52.9287 21.1431C53.0274 21.0641 53.4323 20.6197 53.4323 20.6197C53.4916 20.5111 53.5409 20.5111 53.5409 20.5111C53.6199 20.5012 53.7285 20.6987 53.7285 20.6987C54.0149 21.2517 54.3013 21.1826 54.3013 21.1826C54.3013 21.0838 54.2322 20.9653 54.2322 20.9653C54.1532 20.8172 53.8273 20.1655 53.8273 20.1655C53.7878 20.0667 53.7483 19.9482 53.7483 19.9482C53.4718 19.5236 53.2151 19.8495 53.2151 19.8495C53.0966 20.0766 52.4843 20.8073 52.4843 20.8073C52.3461 20.9752 52.3362 21.1431 52.3362 21.1431C52.1881 22.1404 52.6917 22.2293 52.6917 22.2293ZM58.3795 16.1366C58.4585 15.9885 58.4289 15.8305 58.34 15.6824C58.1524 15.3861 57.9746 15.712 57.9746 15.712C57.313 16.6303 57.8068 18.0128 57.8068 18.0128C57.8759 16.739 58.3795 16.1366 58.3795 16.1366Z" fill="#F0F2F7"/>
<mask id="mask1_11_596" style="mask-type:luminance" maskUnits="userSpaceOnUse" x="0" y="27" width="93" height="27">
<path d="M93.0001 27.9463H0.830078V53.571H93.0001V27.9463Z" fill="white"/>
</mask>
<g mask="url(#mask1_11_596)">
<path d="M9.71729 35.1941V52.06H13.124V38.4133H14.7237C14.7237 38.4133 17.2319 38.3047 17.2319 40.5758C17.2319 42.8569 15.0101 42.7976 15.0101 42.7976H14.1905V46.6784L17.5973 52.06H21.5866L16.8369 45.1675C16.8369 45.1675 20.7473 44.8318 20.7473 40.5857C20.7473 36.3396 17.7947 35.204 13.8548 35.204H9.71729V35.1941ZM59.4757 43.0741C59.4757 43.0741 60.9667 41.9188 60.9667 39.7167C60.9667 37.5246 59.367 35.5398 55.9701 35.5398H50.2824V52.0502H57.2934C57.2934 52.0502 62.3196 51.9909 62.3196 47.4486C62.3196 44.8219 61.2926 43.8147 59.4757 43.0741ZM56.7305 49.1865H53.6792V38.4231H55.3085C55.3085 38.4231 57.5205 38.2553 57.5205 40.1907C57.5205 42.1261 55.7628 41.9583 55.7628 41.9583H54.7457V44.8614H56.7305C57.2539 44.8614 58.9029 45.1182 58.9029 47.0141C58.9029 48.91 56.7305 49.1865 56.7305 49.1865ZM80.9333 34.8584H84.1129V52.06H80.9333V34.8584ZM75.4627 34.8584H78.6818V52.06H75.4627V34.8584ZM63.2675 41.978H66.5262V47.7448C66.5262 47.7448 66.6348 49.6901 68.4715 49.6901C70.3081 49.6901 70.2686 47.7448 70.2686 47.7448V42.0076H73.5569V47.9423C73.5569 47.9423 73.9815 52.5834 68.5505 52.5834C63.1194 52.5834 63.2675 48.5052 63.2675 47.7744V41.978ZM41.642 34.8584V42.6594C41.642 42.6594 40.0621 41.4547 38.2649 41.4547C36.4677 41.4547 33.4263 42.7186 33.4263 46.7179C33.4263 50.7072 36.0135 52.2279 38.2353 52.2279C40.4571 52.2279 41.6914 50.7665 41.6914 50.7665V52.0699H44.9007V34.8584H41.642ZM39.1635 49.4038C38.9956 49.4038 36.8824 49.4334 36.8824 46.8462C36.8824 44.2591 39.1931 44.1702 39.1931 44.1702C39.1931 44.1702 41.7803 44.2492 41.7803 46.787C41.7803 49.3248 39.3314 49.4038 39.1635 49.4038ZM27.0177 41.4448C32.4784 41.4448 32.2512 46.7574 32.2512 46.7574V47.5967H24.8551C24.8551 48.8014 25.8722 49.8481 27.2448 49.8481C28.6174 49.8481 29.3283 48.5249 29.3283 48.5249L31.9451 49.8185C30.7404 51.6453 29.1012 52.376 27.2744 52.376C21.5965 52.376 21.478 47.6559 21.478 47.0635C21.478 46.4809 21.557 41.4448 27.0177 41.4448ZM24.9045 45.6613H28.9531C28.9531 45.6613 28.7852 43.7456 26.9584 43.7456C25.1316 43.7555 24.9045 45.6613 24.9045 45.6613Z" fill="#B4B1C3"/>
</g>
</svg>
