<svg width="138" height="54" viewBox="0 0 138 54" fill="none" xmlns="http://www.w3.org/2000/svg">
<g clip-path="url(#clip0_11_584)">
<mask id="mask0_11_584" style="mask-type:luminance" maskUnits="userSpaceOnUse" x="0" y="10" width="138" height="34">
<path d="M138 10H0V44H138V10Z" fill="white"/>
</mask>
<g mask="url(#mask0_11_584)">
<mask id="mask1_11_584" style="mask-type:luminance" maskUnits="userSpaceOnUse" x="-16" y="-2" width="170" height="47">
<path d="M153.695 -1.65723H-15.5493V44.5828H153.695V-1.65723Z" fill="white"/>
</mask>
<g mask="url(#mask1_11_584)">
<path d="M76.1138 31.7507C76.1138 32.013 76.0944 32.285 76.0166 32.5181C75.7154 33.509 74.6949 34.3444 73.4218 34.3444C72.3431 34.3444 71.4976 33.7324 71.4976 32.4598C71.4976 30.5072 73.6551 29.973 76.1138 29.9827M79.9623 28.341C79.9623 25.1158 78.5823 22.2695 73.9078 22.2695C71.517 22.2695 69.6123 22.9495 68.5821 23.5518L69.3401 26.1358C70.2925 25.5432 71.8086 25.0478 73.2372 25.0478C75.5987 25.0478 75.9875 26.3787 75.9875 27.2432V27.4472C70.827 27.4375 67.5714 29.225 67.5714 32.8484C67.5714 35.0632 69.2235 37.1421 72.1196 37.1421C73.8883 37.1421 75.3752 36.433 76.2693 35.3061H76.3568C76.3568 35.3061 76.9399 37.7638 80.1955 36.8215C80.0303 35.7918 79.972 34.7038 79.972 33.3924V28.341H79.9623Z" fill="#B4B1C3"/>
</g>
<mask id="mask2_11_584" style="mask-type:luminance" maskUnits="userSpaceOnUse" x="-16" y="-2" width="170" height="47">
<path d="M153.695 -1.65723H-15.5493V44.5828H153.695V-1.65723Z" fill="white"/>
</mask>
<g mask="url(#mask2_11_584)">
<path d="M0.971802 17.8877C0.971802 17.8877 4.34406 31.6723 4.87856 33.9066C5.51025 36.5197 6.63758 37.4814 9.90293 36.8403L12.0118 28.2917C12.5463 26.174 12.9059 24.6586 13.246 22.502H13.3043C13.5473 24.678 13.8874 26.174 14.3248 28.3014C14.3248 28.3014 15.18 32.1871 15.627 34.2174C16.0643 36.2477 17.2791 37.53 20.4862 36.8403L25.5008 17.8974H21.4483L19.7281 26.0963C19.2714 28.4666 18.8535 30.3414 18.5328 32.5174H18.4745C18.1829 30.3608 17.8136 28.5734 17.3374 26.242L15.559 17.8974H11.3315L9.42673 26.0283C8.88251 28.5151 8.37715 30.5066 8.05645 32.6048H7.99814C7.66772 30.6231 7.22068 28.1071 6.7542 25.7174C6.7542 25.7174 5.62687 19.8986 5.22842 17.8877" fill="#B4B1C3"/>
</g>
<mask id="mask3_11_584" style="mask-type:luminance" maskUnits="userSpaceOnUse" x="-16" y="-2" width="170" height="47">
<path d="M153.695 -1.65723H-15.5493V44.5828H153.695V-1.65723Z" fill="white"/>
</mask>
<g mask="url(#mask3_11_584)">
<path d="M32.9256 31.7507C32.9256 32.013 32.9061 32.285 32.8284 32.5181C32.5271 33.509 31.5067 34.3444 30.2239 34.3444C29.1549 34.3444 28.3094 33.7324 28.3094 32.4598C28.3094 30.5072 30.4668 29.973 32.9256 29.9827M36.7837 28.341C36.7837 25.1158 35.4037 22.2695 30.7292 22.2695C28.3385 22.2695 26.4337 22.9495 25.4036 23.5518L26.1616 26.1358C27.1043 25.5432 28.6204 25.0478 30.0587 25.0478C32.4202 25.0478 32.809 26.3787 32.809 27.2432V27.4472C27.6485 27.4375 24.3832 29.225 24.3832 32.8484C24.3832 35.0632 26.045 37.1421 28.9313 37.1421C30.7098 37.1421 32.1967 36.433 33.0811 35.3061H33.1685C33.1685 35.3061 33.7613 37.7638 37.0073 36.8215C36.8421 35.7918 36.7837 34.7038 36.7837 33.3924V28.341Z" fill="#B4B1C3"/>
</g>
<mask id="mask4_11_584" style="mask-type:luminance" maskUnits="userSpaceOnUse" x="-16" y="-2" width="170" height="47">
<path d="M153.695 -1.65723H-15.5493V44.5828H153.695V-1.65723Z" fill="white"/>
</mask>
<g mask="url(#mask4_11_584)">
<path d="M38.8829 17.8877V36.8208H42.7314V32.8088V17.8877H38.8829Z" fill="#B4B1C3"/>
</g>
<mask id="mask5_11_584" style="mask-type:luminance" maskUnits="userSpaceOnUse" x="-16" y="-2" width="170" height="47">
<path d="M153.695 -1.65723H-15.5493V44.5828H153.695V-1.65723Z" fill="white"/>
</mask>
<g mask="url(#mask5_11_584)">
<path d="M91.7894 17.8876V31.8568C91.7894 33.7899 92.149 35.1305 92.9265 35.9562C93.6068 36.6751 94.7341 37.1511 96.0655 37.1511C97.2122 37.1511 98.3299 36.9276 98.8644 36.7431L98.8158 33.7316C98.4173 33.8191 97.9703 33.8968 97.3483 33.8968C96.0363 33.8968 95.599 33.0614 95.599 31.3322V25.9796H98.9518V22.3562H95.599V17.8779" fill="#B4B1C3"/>
</g>
<mask id="mask6_11_584" style="mask-type:luminance" maskUnits="userSpaceOnUse" x="-16" y="-2" width="170" height="47">
<path d="M153.695 -1.65723H-15.5493V44.5828H153.695V-1.65723Z" fill="white"/>
</mask>
<g mask="url(#mask6_11_584)">
<path d="M81.8379 22.5989V36.8304H85.8224V29.5447C85.8224 29.1561 85.8516 28.8161 85.9099 28.4955C86.2111 26.9607 87.3773 25.9892 89.0586 25.9892C89.5251 25.9892 89.8458 26.0378 90.2054 26.0961V22.3658C89.9041 22.3075 89.7097 22.2881 89.3404 22.2881C87.8535 22.2881 86.1625 23.2304 85.4434 25.2898H85.3462V22.5989" fill="#B4B1C3"/>
</g>
<mask id="mask7_11_584" style="mask-type:luminance" maskUnits="userSpaceOnUse" x="-16" y="-2" width="170" height="47">
<path d="M153.695 -1.65723H-15.5493V44.5828H153.695V-1.65723Z" fill="white"/>
</mask>
<g mask="url(#mask7_11_584)">
<path d="M44.9666 22.5989V36.8303H48.8442V28.476C48.8442 28.0875 48.883 27.6795 49.0288 27.32C49.3398 26.4749 50.127 25.4937 51.3806 25.4937C52.9453 25.4937 53.6839 26.8149 53.6839 28.7092V36.8206H57.5518V28.3692C57.5518 28 57.6004 27.5532 57.7073 27.2229C58.0182 26.2612 58.8637 25.4937 60.0396 25.4937C61.6237 25.4937 62.3818 26.7857 62.3818 29.0297V36.8303H66.2496V28.4372C66.2496 24.0269 64.0047 22.2783 61.4585 22.2783C60.3409 22.2783 59.4468 22.5503 58.6499 23.0457C57.9696 23.4635 57.3768 24.0463 56.8423 24.8137H56.784C56.1718 23.2789 54.7335 22.2783 52.8481 22.2783C50.438 22.2783 49.3398 23.4926 48.6984 24.5223H48.6401V22.5989" fill="#B4B1C3"/>
</g>
<mask id="mask8_11_584" style="mask-type:luminance" maskUnits="userSpaceOnUse" x="-16" y="-2" width="170" height="47">
<path d="M153.695 -1.65723H-15.5493V44.5828H153.695V-1.65723Z" fill="white"/>
</mask>
<g mask="url(#mask8_11_584)">
<path d="M119.798 21.9585C120.556 21.9585 121.197 21.5603 121.284 21.0551L122.043 12.5065C122.043 11.6614 121.051 10.9717 119.807 10.9717C118.554 10.9717 117.562 11.6614 117.562 12.5065L118.32 21.0551C118.398 21.5603 119.04 21.9585 119.798 21.9585Z" fill="#B4B1C3"/>
</g>
<mask id="mask9_11_584" style="mask-type:luminance" maskUnits="userSpaceOnUse" x="-16" y="-2" width="170" height="47">
<path d="M153.695 -1.65723H-15.5493V44.5828H153.695V-1.65723Z" fill="white"/>
</mask>
<g mask="url(#mask9_11_584)">
<path d="M115.172 24.63C115.551 23.9597 115.531 23.2215 115.123 22.8912L108.077 17.966C107.348 17.5386 106.25 18.0437 105.619 19.122C104.997 20.2003 105.123 21.4049 105.832 21.8226L113.636 25.4363C114.132 25.6403 114.783 25.2906 115.172 24.63Z" fill="#B4B1C3"/>
</g>
<mask id="mask10_11_584" style="mask-type:luminance" maskUnits="userSpaceOnUse" x="-16" y="-2" width="170" height="47">
<path d="M153.695 -1.65723H-15.5493V44.5828H153.695V-1.65723Z" fill="white"/>
</mask>
<g mask="url(#mask10_11_584)">
<path d="M124.433 24.6295C124.832 25.2901 125.483 25.6398 125.969 25.465L133.772 21.8415C134.492 21.4141 134.608 20.2192 133.996 19.141C133.374 18.0627 132.266 17.5575 131.537 17.9752L124.492 22.8907C124.083 23.221 124.054 23.969 124.433 24.6295Z" fill="#B4B1C3"/>
</g>
<mask id="mask11_11_584" style="mask-type:luminance" maskUnits="userSpaceOnUse" x="-16" y="-1" width="170" height="47">
<path d="M153.695 -0.657227H-15.5493V45.5828H153.695V-0.657227Z" fill="white"/>
</mask>
<g mask="url(#mask11_11_584)">
<path d="M119.798 33.6338C120.556 33.6338 121.197 34.0321 121.284 34.5372L122.043 43.0858C122.043 43.9309 121.051 44.6206 119.807 44.6206C118.554 44.6206 117.562 43.9309 117.562 43.0858L118.32 34.5372C118.398 34.0321 119.04 33.6338 119.798 33.6338Z" fill="#B4B1C3"/>
</g>
<mask id="mask12_11_584" style="mask-type:luminance" maskUnits="userSpaceOnUse" x="-16" y="-2" width="170" height="47">
<path d="M153.695 -1.65723H-15.5493V44.5828H153.695V-1.65723Z" fill="white"/>
</mask>
<g mask="url(#mask12_11_584)">
<path d="M124.433 29.9633C124.832 29.3027 125.483 28.9433 125.969 29.1375L133.772 32.7513C134.492 33.169 134.608 34.3735 133.996 35.4518C133.374 36.5204 132.266 37.0353 131.537 36.6078L124.492 31.6827C124.083 31.3621 124.054 30.6238 124.433 29.9633Z" fill="#B4B1C3"/>
</g>
<mask id="mask13_11_584" style="mask-type:luminance" maskUnits="userSpaceOnUse" x="-16" y="-2" width="170" height="47">
<path d="M153.695 -1.65723H-15.5493V44.5828H153.695V-1.65723Z" fill="white"/>
</mask>
<g mask="url(#mask13_11_584)">
<path d="M115.172 29.9632C115.551 30.6335 115.531 31.3718 115.123 31.7021L108.077 36.6175C107.348 37.0449 106.25 36.5301 105.619 35.4615C104.997 34.3832 105.123 33.1786 105.832 32.7609L113.636 29.1472C114.132 28.9529 114.783 29.3026 115.172 29.9632Z" fill="#B4B1C3"/>
</g>
<mask id="mask14_11_584" style="mask-type:luminance" maskUnits="userSpaceOnUse" x="-16" y="-2" width="170" height="47">
<path d="M153.695 -1.65723H-15.5493V44.5828H153.695V-1.65723Z" fill="white"/>
</mask>
<g mask="url(#mask14_11_584)">
<path d="M136.192 34.9951C136.61 34.9951 136.921 35.3351 136.921 35.7528C136.921 36.1802 136.61 36.5299 136.192 36.5202C135.774 36.5202 135.454 36.1802 135.454 35.7528C135.454 35.3351 135.774 34.9951 136.192 34.9951ZM136.192 34.8008C135.648 34.8008 135.211 35.2282 135.211 35.7528C135.211 36.2871 135.648 36.7145 136.192 36.7145C136.746 36.7145 137.164 36.2871 137.164 35.7528C137.174 35.2282 136.746 34.8008 136.192 34.8008ZM136.056 35.4419L136.173 35.4225C136.309 35.4225 136.377 35.4808 136.377 35.5682C136.377 35.6654 136.28 35.7139 136.153 35.7139H136.056V35.4419ZM136.047 35.8694H136.144C136.28 35.8694 136.328 35.9082 136.348 36.0151C136.377 36.1316 136.387 36.2094 136.416 36.2482H136.669C136.649 36.2191 136.62 36.1608 136.601 36.0151C136.571 35.8888 136.503 35.8208 136.416 35.7916V35.7722C136.542 35.7431 136.62 35.6556 136.62 35.5488C136.62 35.4516 136.571 35.3836 136.533 35.3448C136.455 35.3059 136.367 35.2768 136.192 35.2768C136.037 35.2768 135.92 35.2865 135.833 35.3156V36.2579H136.056V35.8694H136.047Z" fill="#B4B1C3"/>
</g>
</g>
</g>
<defs>
<clipPath id="clip0_11_584">
<rect width="138" height="54" fill="white"/>
</clipPath>
</defs>
</svg>
