<svg width="128" height="56" viewBox="0 0 128 56" fill="none" xmlns="http://www.w3.org/2000/svg">
<g clip-path="url(#clip0_510_201)">
<mask id="mask0_510_201" style="mask-type:luminance" maskUnits="userSpaceOnUse" x="0" y="24" width="128" height="32">
<path d="M128 24H0V55.5H128V24Z" fill="white"/>
</mask>
<g mask="url(#mask0_510_201)">
<path d="M18.64 43.56V46.67L12.57 50.17C9.74 51.79 6.14 50.83 4.51 48.02H4.52C3.83 46.84 3.58 45.43 3.82 44.07C3.86 44.1 3.95 44.14 4 44.18L10.27 47.81C10.59 47.99 10.98 47.99 11.31 47.81L18.64 43.56ZM20.4 38.98L23.1 40.54V47.55C23.1 50.81 20.45 53.46 17.2 53.46V53.45C15.82 53.45 14.48 52.97 13.42 52.09C13.46 52.07 13.56 52.02 13.61 51.98L19.88 48.36C20.2 48.18 20.4 47.84 20.39 47.46V38.98H20.4ZM15.53 36.16L18.62 37.95V41.52L15.53 43.31L12.44 41.52V37.95L15.53 36.16ZM19.99 33.59L26.06 37.09C28.89 38.72 29.85 42.33 28.21 45.15L28.22 45.16C27.53 46.35 26.44 47.27 25.15 47.74V40.28C25.15 39.91 24.96 39.57 24.64 39.38L17.29 35.13L19.99 33.59ZM5.93 31.74V39.2C5.93 39.57 6.12 39.9 6.44 40.1L13.78 44.33L11.07 45.9L5.01 42.4C2.19 40.77 1.23 37.16 2.86 34.34C3.55 33.14 4.64 32.22 5.93 31.74ZM21.45 28.52C23.56 28.52 25.52 29.65 26.58 31.48C27.26 32.68 27.52 34.07 27.28 35.43C27.24 35.4 27.15 35.36 27.1 35.32L20.83 31.69C20.51 31.51 20.12 31.51 19.8 31.69L12.45 35.93V32.82L18.52 29.31C19.4 28.79 20.41 28.52 21.45 28.52ZM13.89 26.05L13.88 26.06C15.27 26.06 16.6 26.54 17.67 27.43C17.63 27.45 17.54 27.5 17.48 27.54L11.2 31.15C10.88 31.33 10.69 31.67 10.69 32.05V40.54L7.99 38.98V31.96C7.99 28.7 10.63 26.05 13.89 26.05ZM13.89 24C10.44 24 7.38 26.22 6.32 29.49C4.1 29.95 2.19 31.34 1.07 33.3C-0.659999 36.29 -0.26 40.04 2.05 42.6C1.33 44.74 1.58 47.09 2.72 49.03C4.44 52.03 7.89 53.56 11.27 52.85C12.77 54.54 14.92 55.5 17.18 55.5C20.63 55.5 23.69 53.28 24.75 50.01C26.97 49.55 28.88 48.17 29.99 46.2C31.73 43.21 31.33 39.46 29.02 36.9V36.89C29.73 34.75 29.49 32.4 28.35 30.45C26.63 27.46 23.18 25.93 19.8 26.64C18.31 24.95 16.15 23.99 13.89 24ZM43.34 34.15C46.31 34.18 48.01 36.08 48.01 39.37V42.44C48.01 45.72 46.3 47.62 43.34 47.66C40.37 47.63 38.67 45.73 38.67 42.44V39.37C38.67 36.09 40.38 34.19 43.34 34.15ZM43.27 31.44C38.29 31.44 35.19 34.54 35.19 39.55V42.25C35.19 47.25 38.28 50.36 43.27 50.36H43.34H43.41C48.39 50.36 51.49 47.26 51.49 42.25V39.55C51.49 34.55 48.39 31.44 43.41 31.44H43.34H43.27ZM91.29 36.27H91.19H91.14C89.25 36.27 87.91 36.91 87.25 38.14L87.05 38.51V36.59H83.83V49.99H87.21V42C87.21 40.12 88.22 39.05 89.97 39.01C91.65 39.04 92.61 40.1 92.61 41.92V49.97H95.99V41.34C95.99 38.15 94.24 36.25 91.31 36.25H91.29V36.27ZM128 34.38V31.82H116.84V34.38H120.75V47.41H116.84V49.97H128V47.41H124.09V34.38H128ZM106.44 34.94L109.16 43.53H103.7L106.44 34.94ZM104.5 31.82L98 49.99H101.66L102.91 46.1H110.01V46.14L111.26 50H114.92L108.4 31.82H108.02H108H104.5ZM60.68 38.8C62.64 38.83 63.86 40.16 63.86 42.3V44.26C63.86 46.39 62.63 47.72 60.65 47.76C58.81 47.73 57.51 46.32 57.51 44.32V42.3C57.52 40.28 58.82 38.85 60.68 38.8ZM61.47 36.27C59.77 36.27 58.31 36.97 57.54 38.15L57.35 38.45V36.59H54.13V54.6H57.51V48.31L57.7 48.6C58.43 49.68 59.84 50.32 61.5 50.32H61.58H61.66C64.44 50.32 67.25 48.51 67.25 44.44V42.16C67.25 39.24 65.52 36.28 61.64 36.28L61.62 36.27H61.54H61.47ZM75.46 38.44C77.23 38.53 78.3 39.7 78.3 41.63V42.16H72.6V41.85C72.6 39.72 73.61 38.53 75.46 38.44ZM75.65 36.26V36.27C75.59 36.27 75.52 36.28 75.46 36.28C75.4 36.28 75.33 36.27 75.27 36.27C71.46 36.27 69.1 38.65 69.1 42.47V44.35C69.1 48.03 71.49 50.31 75.32 50.31C75.4 50.31 75.48 50.31 75.56 50.3C75.61 50.3 75.66 50.31 75.71 50.31C78.28 50.31 80.07 49.37 81.21 47.43L78.94 46.12C78.18 47.24 77.17 48.08 75.72 48.08C73.78 48.08 72.62 46.89 72.62 44.87V44.34H81.62V42.12C81.61 38.55 79.28 36.26 75.65 36.26Z" fill="#8D8EA3"/>
</g>
</g>
<path d="M30.26 12V3.6H33.536C34.272 3.6 34.9 3.716 35.42 3.948C35.94 4.18 36.34 4.516 36.62 4.956C36.9 5.396 37.04 5.92 37.04 6.528C37.04 7.136 36.9 7.66 36.62 8.1C36.34 8.532 35.94 8.868 35.42 9.108C34.9 9.34 34.272 9.456 33.536 9.456H30.92L31.46 8.892V12H30.26ZM31.46 9.012L30.92 8.412H33.5C34.268 8.412 34.848 8.248 35.24 7.92C35.64 7.592 35.84 7.128 35.84 6.528C35.84 5.928 35.64 5.464 35.24 5.136C34.848 4.808 34.268 4.644 33.5 4.644H30.92L31.46 4.044V9.012ZM41.2155 12.072C40.5755 12.072 40.0075 11.932 39.5115 11.652C39.0155 11.372 38.6235 10.988 38.3355 10.5C38.0475 10.004 37.9035 9.444 37.9035 8.82C37.9035 8.188 38.0475 7.628 38.3355 7.14C38.6235 6.652 39.0155 6.272 39.5115 6C40.0075 5.72 40.5755 5.58 41.2155 5.58C41.8475 5.58 42.4115 5.72 42.9075 6C43.4115 6.272 43.8035 6.652 44.0835 7.14C44.3715 7.62 44.5155 8.18 44.5155 8.82C44.5155 9.452 44.3715 10.012 44.0835 10.5C43.8035 10.988 43.4115 11.372 42.9075 11.652C42.4115 11.932 41.8475 12.072 41.2155 12.072ZM41.2155 11.064C41.6235 11.064 41.9875 10.972 42.3075 10.788C42.6355 10.604 42.8915 10.344 43.0755 10.008C43.2595 9.664 43.3515 9.268 43.3515 8.82C43.3515 8.364 43.2595 7.972 43.0755 7.644C42.8915 7.308 42.6355 7.048 42.3075 6.864C41.9875 6.68 41.6235 6.588 41.2155 6.588C40.8075 6.588 40.4435 6.68 40.1235 6.864C39.8035 7.048 39.5475 7.308 39.3555 7.644C39.1635 7.972 39.0675 8.364 39.0675 8.82C39.0675 9.268 39.1635 9.664 39.3555 10.008C39.5475 10.344 39.8035 10.604 40.1235 10.788C40.4435 10.972 40.8075 11.064 41.2155 11.064ZM47.1569 12L44.7929 5.64H45.8849L47.9849 11.4H47.4689L49.6529 5.64H50.6249L52.7609 11.4H52.2569L54.4049 5.64H55.4369L53.0609 12H51.9569L49.9529 6.744H50.2889L48.2609 12H47.1569ZM59.1421 12.072C58.4621 12.072 57.8621 11.932 57.3421 11.652C56.8301 11.372 56.4301 10.988 56.1421 10.5C55.8621 10.012 55.7221 9.452 55.7221 8.82C55.7221 8.188 55.8581 7.628 56.1301 7.14C56.4101 6.652 56.7901 6.272 57.2701 6C57.7581 5.72 58.3061 5.58 58.9141 5.58C59.5301 5.58 60.0741 5.716 60.5461 5.988C61.0181 6.26 61.3861 6.644 61.6501 7.14C61.9221 7.628 62.0581 8.2 62.0581 8.856C62.0581 8.904 62.0541 8.96 62.0461 9.024C62.0461 9.088 62.0421 9.148 62.0341 9.204H56.6221V8.376H61.4341L60.9661 8.664C60.9741 8.256 60.8901 7.892 60.7141 7.572C60.5381 7.252 60.2941 7.004 59.9821 6.828C59.6781 6.644 59.3221 6.552 58.9141 6.552C58.5141 6.552 58.1581 6.644 57.8461 6.828C57.5341 7.004 57.2901 7.256 57.1141 7.584C56.9381 7.904 56.8501 8.272 56.8501 8.688V8.88C56.8501 9.304 56.9461 9.684 57.1381 10.02C57.3381 10.348 57.6141 10.604 57.9661 10.788C58.3181 10.972 58.7221 11.064 59.1781 11.064C59.5541 11.064 59.8941 11 60.1981 10.872C60.5101 10.744 60.7821 10.552 61.0141 10.296L61.6501 11.04C61.3621 11.376 61.0021 11.632 60.5701 11.808C60.1461 11.984 59.6701 12.072 59.1421 12.072ZM63.5378 12V5.64H64.6418V7.368L64.5338 6.936C64.7098 6.496 65.0058 6.16 65.4218 5.928C65.8378 5.696 66.3498 5.58 66.9578 5.58V6.696C66.9098 6.688 66.8618 6.684 66.8138 6.684C66.7738 6.684 66.7338 6.684 66.6938 6.684C66.0778 6.684 65.5898 6.868 65.2298 7.236C64.8698 7.604 64.6898 8.136 64.6898 8.832V12H63.5378ZM71.031 12.072C70.351 12.072 69.751 11.932 69.231 11.652C68.719 11.372 68.319 10.988 68.031 10.5C67.751 10.012 67.611 9.452 67.611 8.82C67.611 8.188 67.747 7.628 68.019 7.14C68.299 6.652 68.679 6.272 69.159 6C69.647 5.72 70.195 5.58 70.803 5.58C71.419 5.58 71.963 5.716 72.435 5.988C72.907 6.26 73.275 6.644 73.539 7.14C73.811 7.628 73.947 8.2 73.947 8.856C73.947 8.904 73.943 8.96 73.935 9.024C73.935 9.088 73.931 9.148 73.923 9.204H68.511V8.376H73.323L72.855 8.664C72.863 8.256 72.779 7.892 72.603 7.572C72.427 7.252 72.183 7.004 71.871 6.828C71.567 6.644 71.211 6.552 70.803 6.552C70.403 6.552 70.047 6.644 69.735 6.828C69.423 7.004 69.179 7.256 69.003 7.584C68.827 7.904 68.739 8.272 68.739 8.688V8.88C68.739 9.304 68.835 9.684 69.027 10.02C69.227 10.348 69.503 10.604 69.855 10.788C70.207 10.972 70.611 11.064 71.067 11.064C71.443 11.064 71.783 11 72.087 10.872C72.399 10.744 72.671 10.552 72.903 10.296L73.539 11.04C73.251 11.376 72.891 11.632 72.459 11.808C72.035 11.984 71.559 12.072 71.031 12.072ZM78.0547 12.072C77.4387 12.072 76.8867 11.936 76.3987 11.664C75.9187 11.392 75.5387 11.012 75.2587 10.524C74.9787 10.036 74.8387 9.468 74.8387 8.82C74.8387 8.172 74.9787 7.608 75.2587 7.128C75.5387 6.64 75.9187 6.26 76.3987 5.988C76.8867 5.716 77.4387 5.58 78.0547 5.58C78.5907 5.58 79.0747 5.7 79.5067 5.94C79.9387 6.18 80.2827 6.54 80.5387 7.02C80.8027 7.5 80.9347 8.1 80.9347 8.82C80.9347 9.54 80.8067 10.14 80.5507 10.62C80.3027 11.1 79.9627 11.464 79.5307 11.712C79.0987 11.952 78.6067 12.072 78.0547 12.072ZM78.1507 11.064C78.5507 11.064 78.9107 10.972 79.2307 10.788C79.5587 10.604 79.8147 10.344 79.9987 10.008C80.1907 9.664 80.2867 9.268 80.2867 8.82C80.2867 8.364 80.1907 7.972 79.9987 7.644C79.8147 7.308 79.5587 7.048 79.2307 6.864C78.9107 6.68 78.5507 6.588 78.1507 6.588C77.7427 6.588 77.3787 6.68 77.0587 6.864C76.7387 7.048 76.4827 7.308 76.2907 7.644C76.0987 7.972 76.0027 8.364 76.0027 8.82C76.0027 9.268 76.0987 9.664 76.2907 10.008C76.4827 10.344 76.7387 10.604 77.0587 10.788C77.3787 10.972 77.7427 11.064 78.1507 11.064ZM80.3227 12V10.284L80.3947 8.808L80.2747 7.332V3.096H81.4267V12H80.3227ZM89.961 12.072C89.417 12.072 88.925 11.952 88.485 11.712C88.053 11.464 87.709 11.1 87.453 10.62C87.205 10.14 87.081 9.54 87.081 8.82C87.081 8.1 87.209 7.5 87.465 7.02C87.729 6.54 88.077 6.18 88.509 5.94C88.949 5.7 89.433 5.58 89.961 5.58C90.585 5.58 91.137 5.716 91.617 5.988C92.097 6.26 92.477 6.64 92.757 7.128C93.037 7.608 93.177 8.172 93.177 8.82C93.177 9.468 93.037 10.036 92.757 10.524C92.477 11.012 92.097 11.392 91.617 11.664C91.137 11.936 90.585 12.072 89.961 12.072ZM86.589 12V3.096H87.741V7.332L87.621 8.808L87.693 10.284V12H86.589ZM89.865 11.064C90.273 11.064 90.637 10.972 90.957 10.788C91.285 10.604 91.541 10.344 91.725 10.008C91.917 9.664 92.013 9.268 92.013 8.82C92.013 8.364 91.917 7.972 91.725 7.644C91.541 7.308 91.285 7.048 90.957 6.864C90.637 6.68 90.273 6.588 89.865 6.588C89.465 6.588 89.101 6.68 88.773 6.864C88.453 7.048 88.197 7.308 88.005 7.644C87.821 7.972 87.729 8.364 87.729 8.82C87.729 9.268 87.821 9.664 88.005 10.008C88.197 10.344 88.453 10.604 88.773 10.788C89.101 10.972 89.465 11.064 89.865 11.064ZM94.7489 14.4C94.4449 14.4 94.1489 14.348 93.8609 14.244C93.5729 14.148 93.3249 14.004 93.1169 13.812L93.6089 12.948C93.7689 13.1 93.9449 13.216 94.1369 13.296C94.3289 13.376 94.5329 13.416 94.7489 13.416C95.0289 13.416 95.2609 13.344 95.4449 13.2C95.6289 13.056 95.8009 12.8 95.9609 12.432L96.3569 11.556L96.4769 11.412L98.9729 5.64H100.101L97.0169 12.636C96.8329 13.084 96.6249 13.436 96.3929 13.692C96.1689 13.948 95.9209 14.128 95.6489 14.232C95.3769 14.344 95.0769 14.4 94.7489 14.4ZM96.2609 12.204L93.3569 5.64H94.5569L97.0289 11.304L96.2609 12.204ZM101.414 7.224C101.19 7.224 100.998 7.148 100.838 6.996C100.678 6.836 100.598 6.636 100.598 6.396C100.598 6.156 100.678 5.96 100.838 5.808C100.998 5.656 101.19 5.58 101.414 5.58C101.63 5.58 101.814 5.656 101.966 5.808C102.126 5.96 102.206 6.156 102.206 6.396C102.206 6.636 102.126 6.836 101.966 6.996C101.814 7.148 101.63 7.224 101.414 7.224ZM101.414 12.072C101.19 12.072 100.998 11.996 100.838 11.844C100.678 11.684 100.598 11.484 100.598 11.244C100.598 11.004 100.678 10.808 100.838 10.656C100.998 10.504 101.19 10.428 101.414 10.428C101.63 10.428 101.814 10.504 101.966 10.656C102.126 10.808 102.206 11.004 102.206 11.244C102.206 11.484 102.126 11.684 101.966 11.844C101.814 11.996 101.63 12.072 101.414 12.072Z" fill="#8D8EA3"/>
<defs>
<clipPath id="clip0_510_201">
<rect width="128" height="31.5" fill="white" transform="translate(0 24)"/>
</clipPath>
</defs>
</svg>
