<svg width="128" height="32" viewBox="0 0 128 32" fill="none" xmlns="http://www.w3.org/2000/svg">
<g clip-path="url(#clip0_16_950)">
<mask id="mask0_16_950" style="mask-type:luminance" maskUnits="userSpaceOnUse" x="0" y="0" width="128" height="32">
<path d="M128 0H0V31.5H128V0Z" fill="white"/>
</mask>
<g mask="url(#mask0_16_950)">
<path d="M18.64 19.5601V22.6701L12.57 26.1701C9.74003 27.7901 6.14003 26.8301 4.51003 24.0201H4.52003C3.83003 22.8401 3.58003 21.4301 3.82003 20.0701C3.86003 20.1001 3.95003 20.1401 4.00003 20.1801L10.27 23.8101C10.59 23.9901 10.98 23.9901 11.31 23.8101L18.64 19.5601ZM20.4 14.9801L23.1 16.5401V23.5501C23.1 26.8101 20.45 29.4601 17.2 29.4601V29.4501C15.82 29.4501 14.48 28.9701 13.42 28.0901C13.46 28.0701 13.56 28.0201 13.61 27.9801L19.88 24.3601C20.2 24.1801 20.4 23.8401 20.39 23.4601V14.9801H20.4ZM15.53 12.1601L18.62 13.9501V17.5201L15.53 19.3101L12.44 17.5201V13.9501L15.53 12.1601ZM19.99 9.59008L26.06 13.0901C28.89 14.7201 29.85 18.3301 28.21 21.1501L28.22 21.1601C27.53 22.3501 26.44 23.2701 25.15 23.7401V16.2801C25.15 15.9101 24.96 15.5701 24.64 15.3801L17.29 11.1301L19.99 9.59008ZM5.93003 7.74008V15.2001C5.93003 15.5701 6.12003 15.9001 6.44003 16.1001L13.78 20.3301L11.07 21.9001L5.01003 18.4001C2.19003 16.7701 1.23003 13.1601 2.86003 10.3401C3.55003 9.14008 4.64003 8.22008 5.93003 7.74008ZM21.45 4.52008C23.56 4.52008 25.52 5.65008 26.58 7.48008C27.26 8.68008 27.52 10.0701 27.28 11.4301C27.24 11.4001 27.15 11.3601 27.1 11.3201L20.83 7.69008C20.51 7.51008 20.12 7.51008 19.8 7.69008L12.45 11.9301V8.82008L18.52 5.31008C19.4 4.79008 20.41 4.52008 21.45 4.52008ZM13.89 2.05008L13.88 2.06008C15.27 2.06008 16.6 2.54008 17.67 3.43008C17.63 3.45008 17.54 3.50008 17.48 3.54008L11.2 7.15008C10.88 7.33008 10.69 7.67008 10.69 8.05008V16.5401L7.99003 14.9801V7.96008C7.99003 4.70008 10.63 2.05008 13.89 2.05008ZM13.89 7.73525e-05C10.44 7.73525e-05 7.38003 2.22008 6.32003 5.49008C4.10003 5.95008 2.19003 7.34008 1.07003 9.30008C-0.659967 12.2901 -0.259967 16.0401 2.05003 18.6001C1.33003 20.7401 1.58003 23.0901 2.72003 25.0301C4.44003 28.0301 7.89003 29.5601 11.27 28.8501C12.77 30.5401 14.92 31.5001 17.18 31.5001C20.63 31.5001 23.69 29.2801 24.75 26.0101C26.97 25.5501 28.88 24.1701 29.99 22.2001C31.73 19.2101 31.33 15.4601 29.02 12.9001V12.8901C29.73 10.7501 29.49 8.40008 28.35 6.45008C26.63 3.46008 23.18 1.93008 19.8 2.64008C18.31 0.950077 16.15 -0.00992265 13.89 7.73525e-05ZM43.34 10.1501C46.31 10.1801 48.01 12.0801 48.01 15.3701V18.4401C48.01 21.7201 46.3 23.6201 43.34 23.6601C40.37 23.6301 38.67 21.7301 38.67 18.4401V15.3701C38.67 12.0901 40.38 10.1901 43.34 10.1501ZM43.27 7.44008C38.29 7.44008 35.19 10.5401 35.19 15.5501V18.2501C35.19 23.2501 38.28 26.3601 43.27 26.3601H43.34H43.41C48.39 26.3601 51.49 23.2601 51.49 18.2501V15.5501C51.49 10.5501 48.39 7.44008 43.41 7.44008H43.34H43.27ZM91.29 12.2701H91.19H91.14C89.25 12.2701 87.91 12.9101 87.25 14.1401L87.05 14.5101V12.5901H83.83V25.9901H87.21V18.0001C87.21 16.1201 88.22 15.0501 89.97 15.0101C91.65 15.0401 92.61 16.1001 92.61 17.9201V25.9701H95.99V17.3401C95.99 14.1501 94.24 12.2501 91.31 12.2501H91.29V12.2701ZM128 10.3801V7.82008H116.84V10.3801H120.75V23.4101H116.84V25.9701H128V23.4101H124.09V10.3801H128ZM106.44 10.9401L109.16 19.5301H103.7L106.44 10.9401ZM104.5 7.82008L98 25.9901H101.66L102.91 22.1001H110.01V22.1401L111.26 26.0001H114.92L108.4 7.82008H108.02H108H104.5ZM60.68 14.8001C62.64 14.8301 63.86 16.1601 63.86 18.3001V20.2601C63.86 22.3901 62.63 23.7201 60.65 23.7601C58.81 23.7301 57.51 22.3201 57.51 20.3201V18.3001C57.52 16.2801 58.82 14.8501 60.68 14.8001ZM61.47 12.2701C59.77 12.2701 58.31 12.9701 57.54 14.1501L57.35 14.4501V12.5901H54.13V30.6001H57.51V24.3101L57.7 24.6001C58.43 25.6801 59.84 26.3201 61.5 26.3201H61.58H61.66C64.44 26.3201 67.25 24.5101 67.25 20.4401V18.1601C67.25 15.2401 65.52 12.2801 61.64 12.2801L61.62 12.2701H61.54H61.47ZM75.46 14.4401C77.23 14.5301 78.3 15.7001 78.3 17.6301V18.1601H72.6V17.8501C72.6 15.7201 73.61 14.5301 75.46 14.4401ZM75.65 12.2601V12.2701C75.59 12.2701 75.52 12.2801 75.46 12.2801C75.4 12.2801 75.33 12.2701 75.27 12.2701C71.46 12.2701 69.1 14.6501 69.1 18.4701V20.3501C69.1 24.0301 71.49 26.3101 75.32 26.3101C75.4 26.3101 75.48 26.3101 75.56 26.3001C75.61 26.3001 75.66 26.3101 75.71 26.3101C78.28 26.3101 80.07 25.3701 81.21 23.4301L78.94 22.1201C78.18 23.2401 77.17 24.0801 75.72 24.0801C73.78 24.0801 72.62 22.8901 72.62 20.8701V20.3401H81.62V18.1201C81.61 14.5501 79.28 12.2601 75.65 12.2601Z" fill="#8A869E"/>
</g>
</g>
<defs>
<clipPath id="clip0_16_950">
<rect width="128" height="31.5" fill="white"/>
</clipPath>
</defs>
</svg>
