<svg width="129" height="56" viewBox="0 0 129 56" fill="none" xmlns="http://www.w3.org/2000/svg">
<g clip-path="url(#clip0_510_201)">
<mask id="mask0_510_201" style="mask-type:luminance" maskUnits="userSpaceOnUse" x="1" y="24" width="128" height="32">
<path d="M129 24H1V55.5H129V24Z" fill="white"/>
</mask>
<g mask="url(#mask0_510_201)">
<path d="M19.64 43.56V46.67L13.57 50.17C10.74 51.79 7.14 50.83 5.51 48.02H5.52C4.83 46.84 4.58 45.43 4.82 44.07C4.86 44.1 4.95 44.14 5 44.18L11.27 47.81C11.59 47.99 11.98 47.99 12.31 47.81L19.64 43.56ZM21.4 38.98L24.1 40.54V47.55C24.1 50.81 21.45 53.46 18.2 53.46V53.45C16.82 53.45 15.48 52.97 14.42 52.09C14.46 52.07 14.56 52.02 14.61 51.98L20.88 48.36C21.2 48.18 21.4 47.84 21.39 47.46V38.98H21.4ZM16.53 36.16L19.62 37.95V41.52L16.53 43.31L13.44 41.52V37.95L16.53 36.16ZM20.99 33.59L27.06 37.09C29.89 38.72 30.85 42.33 29.21 45.15L29.22 45.16C28.53 46.35 27.44 47.27 26.15 47.74V40.28C26.15 39.91 25.96 39.57 25.64 39.38L18.29 35.13L20.99 33.59ZM6.93 31.74V39.2C6.93 39.57 7.12 39.9 7.44 40.1L14.78 44.33L12.07 45.9L6.01 42.4C3.19 40.77 2.23 37.16 3.86 34.34C4.55 33.14 5.64 32.22 6.93 31.74ZM22.45 28.52C24.56 28.52 26.52 29.65 27.58 31.48C28.26 32.68 28.52 34.07 28.28 35.43C28.24 35.4 28.15 35.36 28.1 35.32L21.83 31.69C21.51 31.51 21.12 31.51 20.8 31.69L13.45 35.93V32.82L19.52 29.31C20.4 28.79 21.41 28.52 22.45 28.52ZM14.89 26.05L14.88 26.06C16.27 26.06 17.6 26.54 18.67 27.43C18.63 27.45 18.54 27.5 18.48 27.54L12.2 31.15C11.88 31.33 11.69 31.67 11.69 32.05V40.54L8.99 38.98V31.96C8.99 28.7 11.63 26.05 14.89 26.05ZM14.89 24C11.44 24 8.38 26.22 7.32 29.49C5.1 29.95 3.19 31.34 2.07 33.3C0.340001 36.29 0.74 40.04 3.05 42.6C2.33 44.74 2.58 47.09 3.72 49.03C5.44 52.03 8.89 53.56 12.27 52.85C13.77 54.54 15.92 55.5 18.18 55.5C21.63 55.5 24.69 53.28 25.75 50.01C27.97 49.55 29.88 48.17 30.99 46.2C32.73 43.21 32.33 39.46 30.02 36.9V36.89C30.73 34.75 30.49 32.4 29.35 30.45C27.63 27.46 24.18 25.93 20.8 26.64C19.31 24.95 17.15 23.99 14.89 24ZM44.34 34.15C47.31 34.18 49.01 36.08 49.01 39.37V42.44C49.01 45.72 47.3 47.62 44.34 47.66C41.37 47.63 39.67 45.73 39.67 42.44V39.37C39.67 36.09 41.38 34.19 44.34 34.15ZM44.27 31.44C39.29 31.44 36.19 34.54 36.19 39.55V42.25C36.19 47.25 39.28 50.36 44.27 50.36H44.34H44.41C49.39 50.36 52.49 47.26 52.49 42.25V39.55C52.49 34.55 49.39 31.44 44.41 31.44H44.34H44.27ZM92.29 36.27H92.19H92.14C90.25 36.27 88.91 36.91 88.25 38.14L88.05 38.51V36.59H84.83V49.99H88.21V42C88.21 40.12 89.22 39.05 90.97 39.01C92.65 39.04 93.61 40.1 93.61 41.92V49.97H96.99V41.34C96.99 38.15 95.24 36.25 92.31 36.25H92.29V36.27ZM129 34.38V31.82H117.84V34.38H121.75V47.41H117.84V49.97H129V47.41H125.09V34.38H129ZM107.44 34.94L110.16 43.53H104.7L107.44 34.94ZM105.5 31.82L99 49.99H102.66L103.91 46.1H111.01V46.14L112.26 50H115.92L109.4 31.82H109.02H109H105.5ZM61.68 38.8C63.64 38.83 64.86 40.16 64.86 42.3V44.26C64.86 46.39 63.63 47.72 61.65 47.76C59.81 47.73 58.51 46.32 58.51 44.32V42.3C58.52 40.28 59.82 38.85 61.68 38.8ZM62.47 36.27C60.77 36.27 59.31 36.97 58.54 38.15L58.35 38.45V36.59H55.13V54.6H58.51V48.31L58.7 48.6C59.43 49.68 60.84 50.32 62.5 50.32H62.58H62.66C65.44 50.32 68.25 48.51 68.25 44.44V42.16C68.25 39.24 66.52 36.28 62.64 36.28L62.62 36.27H62.54H62.47ZM76.46 38.44C78.23 38.53 79.3 39.7 79.3 41.63V42.16H73.6V41.85C73.6 39.72 74.61 38.53 76.46 38.44ZM76.65 36.26V36.27C76.59 36.27 76.52 36.28 76.46 36.28C76.4 36.28 76.33 36.27 76.27 36.27C72.46 36.27 70.1 38.65 70.1 42.47V44.35C70.1 48.03 72.49 50.31 76.32 50.31C76.4 50.31 76.48 50.31 76.56 50.3C76.61 50.3 76.66 50.31 76.71 50.31C79.28 50.31 81.07 49.37 82.21 47.43L79.94 46.12C79.18 47.24 78.17 48.08 76.72 48.08C74.78 48.08 73.62 46.89 73.62 44.87V44.34H82.62V42.12C82.61 38.55 80.28 36.26 76.65 36.26Z" fill="#C3BED9"/>
</g>
</g>
<path d="M1.26 12V3.6H4.536C5.272 3.6 5.9 3.716 6.42 3.948C6.94 4.18 7.34 4.516 7.62 4.956C7.9 5.396 8.04 5.92 8.04 6.528C8.04 7.136 7.9 7.66 7.62 8.1C7.34 8.532 6.94 8.868 6.42 9.108C5.9 9.34 5.272 9.456 4.536 9.456H1.92L2.46 8.892V12H1.26ZM2.46 9.012L1.92 8.412H4.5C5.268 8.412 5.848 8.248 6.24 7.92C6.64 7.592 6.84 7.128 6.84 6.528C6.84 5.928 6.64 5.464 6.24 5.136C5.848 4.808 5.268 4.644 4.5 4.644H1.92L2.46 4.044V9.012ZM12.2155 12.072C11.5755 12.072 11.0075 11.932 10.5115 11.652C10.0155 11.372 9.62353 10.988 9.33553 10.5C9.04753 10.004 8.90353 9.444 8.90353 8.82C8.90353 8.188 9.04753 7.628 9.33553 7.14C9.62353 6.652 10.0155 6.272 10.5115 6C11.0075 5.72 11.5755 5.58 12.2155 5.58C12.8475 5.58 13.4115 5.72 13.9075 6C14.4115 6.272 14.8035 6.652 15.0835 7.14C15.3715 7.62 15.5155 8.18 15.5155 8.82C15.5155 9.452 15.3715 10.012 15.0835 10.5C14.8035 10.988 14.4115 11.372 13.9075 11.652C13.4115 11.932 12.8475 12.072 12.2155 12.072ZM12.2155 11.064C12.6235 11.064 12.9875 10.972 13.3075 10.788C13.6355 10.604 13.8915 10.344 14.0755 10.008C14.2595 9.664 14.3515 9.268 14.3515 8.82C14.3515 8.364 14.2595 7.972 14.0755 7.644C13.8915 7.308 13.6355 7.048 13.3075 6.864C12.9875 6.68 12.6235 6.588 12.2155 6.588C11.8075 6.588 11.4435 6.68 11.1235 6.864C10.8035 7.048 10.5475 7.308 10.3555 7.644C10.1635 7.972 10.0675 8.364 10.0675 8.82C10.0675 9.268 10.1635 9.664 10.3555 10.008C10.5475 10.344 10.8035 10.604 11.1235 10.788C11.4435 10.972 11.8075 11.064 12.2155 11.064ZM18.1569 12L15.7929 5.64H16.8849L18.9849 11.4H18.4689L20.6529 5.64H21.6249L23.7609 11.4H23.2569L25.4049 5.64H26.4369L24.0609 12H22.9569L20.9529 6.744H21.2889L19.2609 12H18.1569ZM30.1421 12.072C29.4621 12.072 28.8621 11.932 28.3421 11.652C27.8301 11.372 27.4301 10.988 27.1421 10.5C26.8621 10.012 26.7221 9.452 26.7221 8.82C26.7221 8.188 26.8581 7.628 27.1301 7.14C27.4101 6.652 27.7901 6.272 28.2701 6C28.7581 5.72 29.3061 5.58 29.9141 5.58C30.5301 5.58 31.0741 5.716 31.5461 5.988C32.0181 6.26 32.3861 6.644 32.6501 7.14C32.9221 7.628 33.0581 8.2 33.0581 8.856C33.0581 8.904 33.0541 8.96 33.0461 9.024C33.0461 9.088 33.0421 9.148 33.0341 9.204H27.6221V8.376H32.4341L31.9661 8.664C31.9741 8.256 31.8901 7.892 31.7141 7.572C31.5381 7.252 31.2941 7.004 30.9821 6.828C30.6781 6.644 30.3221 6.552 29.9141 6.552C29.5141 6.552 29.1581 6.644 28.8461 6.828C28.5341 7.004 28.2901 7.256 28.1141 7.584C27.9381 7.904 27.8501 8.272 27.8501 8.688V8.88C27.8501 9.304 27.9461 9.684 28.1381 10.02C28.3381 10.348 28.6141 10.604 28.9661 10.788C29.3181 10.972 29.7221 11.064 30.1781 11.064C30.5541 11.064 30.8941 11 31.1981 10.872C31.5101 10.744 31.7821 10.552 32.0141 10.296L32.6501 11.04C32.3621 11.376 32.0021 11.632 31.5701 11.808C31.1461 11.984 30.6701 12.072 30.1421 12.072ZM34.5378 12V5.64H35.6418V7.368L35.5338 6.936C35.7098 6.496 36.0058 6.16 36.4218 5.928C36.8378 5.696 37.3498 5.58 37.9578 5.58V6.696C37.9098 6.688 37.8618 6.684 37.8138 6.684C37.7738 6.684 37.7338 6.684 37.6938 6.684C37.0778 6.684 36.5898 6.868 36.2298 7.236C35.8698 7.604 35.6898 8.136 35.6898 8.832V12H34.5378ZM42.031 12.072C41.351 12.072 40.751 11.932 40.231 11.652C39.719 11.372 39.319 10.988 39.031 10.5C38.751 10.012 38.611 9.452 38.611 8.82C38.611 8.188 38.747 7.628 39.019 7.14C39.299 6.652 39.679 6.272 40.159 6C40.647 5.72 41.195 5.58 41.803 5.58C42.419 5.58 42.963 5.716 43.435 5.988C43.907 6.26 44.275 6.644 44.539 7.14C44.811 7.628 44.947 8.2 44.947 8.856C44.947 8.904 44.943 8.96 44.935 9.024C44.935 9.088 44.931 9.148 44.923 9.204H39.511V8.376H44.323L43.855 8.664C43.863 8.256 43.779 7.892 43.603 7.572C43.427 7.252 43.183 7.004 42.871 6.828C42.567 6.644 42.211 6.552 41.803 6.552C41.403 6.552 41.047 6.644 40.735 6.828C40.423 7.004 40.179 7.256 40.003 7.584C39.827 7.904 39.739 8.272 39.739 8.688V8.88C39.739 9.304 39.835 9.684 40.027 10.02C40.227 10.348 40.503 10.604 40.855 10.788C41.207 10.972 41.611 11.064 42.067 11.064C42.443 11.064 42.783 11 43.087 10.872C43.399 10.744 43.671 10.552 43.903 10.296L44.539 11.04C44.251 11.376 43.891 11.632 43.459 11.808C43.035 11.984 42.559 12.072 42.031 12.072ZM49.0547 12.072C48.4387 12.072 47.8867 11.936 47.3987 11.664C46.9187 11.392 46.5387 11.012 46.2587 10.524C45.9787 10.036 45.8387 9.468 45.8387 8.82C45.8387 8.172 45.9787 7.608 46.2587 7.128C46.5387 6.64 46.9187 6.26 47.3987 5.988C47.8867 5.716 48.4387 5.58 49.0547 5.58C49.5907 5.58 50.0747 5.7 50.5067 5.94C50.9387 6.18 51.2827 6.54 51.5387 7.02C51.8027 7.5 51.9347 8.1 51.9347 8.82C51.9347 9.54 51.8067 10.14 51.5507 10.62C51.3027 11.1 50.9627 11.464 50.5307 11.712C50.0987 11.952 49.6067 12.072 49.0547 12.072ZM49.1507 11.064C49.5507 11.064 49.9107 10.972 50.2307 10.788C50.5587 10.604 50.8147 10.344 50.9987 10.008C51.1907 9.664 51.2867 9.268 51.2867 8.82C51.2867 8.364 51.1907 7.972 50.9987 7.644C50.8147 7.308 50.5587 7.048 50.2307 6.864C49.9107 6.68 49.5507 6.588 49.1507 6.588C48.7427 6.588 48.3787 6.68 48.0587 6.864C47.7387 7.048 47.4827 7.308 47.2907 7.644C47.0987 7.972 47.0027 8.364 47.0027 8.82C47.0027 9.268 47.0987 9.664 47.2907 10.008C47.4827 10.344 47.7387 10.604 48.0587 10.788C48.3787 10.972 48.7427 11.064 49.1507 11.064ZM51.3227 12V10.284L51.3947 8.808L51.2747 7.332V3.096H52.4267V12H51.3227ZM60.961 12.072C60.417 12.072 59.925 11.952 59.485 11.712C59.053 11.464 58.709 11.1 58.453 10.62C58.205 10.14 58.081 9.54 58.081 8.82C58.081 8.1 58.209 7.5 58.465 7.02C58.729 6.54 59.077 6.18 59.509 5.94C59.949 5.7 60.433 5.58 60.961 5.58C61.585 5.58 62.137 5.716 62.617 5.988C63.097 6.26 63.477 6.64 63.757 7.128C64.037 7.608 64.177 8.172 64.177 8.82C64.177 9.468 64.037 10.036 63.757 10.524C63.477 11.012 63.097 11.392 62.617 11.664C62.137 11.936 61.585 12.072 60.961 12.072ZM57.589 12V3.096H58.741V7.332L58.621 8.808L58.693 10.284V12H57.589ZM60.865 11.064C61.273 11.064 61.637 10.972 61.957 10.788C62.285 10.604 62.541 10.344 62.725 10.008C62.917 9.664 63.013 9.268 63.013 8.82C63.013 8.364 62.917 7.972 62.725 7.644C62.541 7.308 62.285 7.048 61.957 6.864C61.637 6.68 61.273 6.588 60.865 6.588C60.465 6.588 60.101 6.68 59.773 6.864C59.453 7.048 59.197 7.308 59.005 7.644C58.821 7.972 58.729 8.364 58.729 8.82C58.729 9.268 58.821 9.664 59.005 10.008C59.197 10.344 59.453 10.604 59.773 10.788C60.101 10.972 60.465 11.064 60.865 11.064ZM65.7489 14.4C65.4449 14.4 65.1489 14.348 64.8609 14.244C64.5729 14.148 64.3249 14.004 64.1169 13.812L64.6089 12.948C64.7689 13.1 64.9449 13.216 65.1369 13.296C65.3289 13.376 65.5329 13.416 65.7489 13.416C66.0289 13.416 66.2609 13.344 66.4449 13.2C66.6289 13.056 66.8009 12.8 66.9609 12.432L67.3569 11.556L67.4769 11.412L69.9729 5.64H71.1009L68.0169 12.636C67.8329 13.084 67.6249 13.436 67.3929 13.692C67.1689 13.948 66.9209 14.128 66.6489 14.232C66.3769 14.344 66.0769 14.4 65.7489 14.4ZM67.2609 12.204L64.3569 5.64H65.5569L68.0289 11.304L67.2609 12.204ZM72.4141 7.224C72.1901 7.224 71.9981 7.148 71.8381 6.996C71.6781 6.836 71.5981 6.636 71.5981 6.396C71.5981 6.156 71.6781 5.96 71.8381 5.808C71.9981 5.656 72.1901 5.58 72.4141 5.58C72.6301 5.58 72.8141 5.656 72.9661 5.808C73.1261 5.96 73.2061 6.156 73.2061 6.396C73.2061 6.636 73.1261 6.836 72.9661 6.996C72.8141 7.148 72.6301 7.224 72.4141 7.224ZM72.4141 12.072C72.1901 12.072 71.9981 11.996 71.8381 11.844C71.6781 11.684 71.5981 11.484 71.5981 11.244C71.5981 11.004 71.6781 10.808 71.8381 10.656C71.9981 10.504 72.1901 10.428 72.4141 10.428C72.6301 10.428 72.8141 10.504 72.9661 10.656C73.1261 10.808 73.2061 11.004 73.2061 11.244C73.2061 11.484 73.1261 11.684 72.9661 11.844C72.8141 11.996 72.6301 12.072 72.4141 12.072Z" fill="#C3BED9"/>
<defs>
<clipPath id="clip0_510_201">
<rect width="128" height="31.5" fill="white" transform="translate(1 24)"/>
</clipPath>
</defs>
</svg>
