<?xml version="1.0" encoding="UTF-8"?>
<!DOCTYPE svg PUBLIC "-//W3C//DTD SVG 1.1//EN" "http://www.w3.org/Graphics/SVG/1.1/DTD/svg11.dtd">
<svg xmlns="http://www.w3.org/2000/svg" xmlns:xlink="http://www.w3.org/1999/xlink">
	<defs>
		<clipPath id="linkedin-a">
			<path d="M0 0h28.13v28.13H0z" style="fill:none"/>
		</clipPath>
	</defs>
<symbol id="linkedin" viewBox="0 0 28.13 28.13">

	<g style="clip-path:url(#linkedin-a)">
		<path d="M9.33 22.61H5.81V11.18h3.52Zm9.08-11.67a4.07 4.07 0 0 1 2.64.78q1.56.9 1.56 5.08v5.81h-3.52v-5.37a12.51 12.51 0 0 0-.14-2A1.72 1.72 0 0 0 17.24 14c-1.44 0-2.15 1-2.15 3v5.62h-3.52V11.18h3.37v1.52H15a4 4 0 0 1 3.42-1.76M5.57 7.23a2.07 2.07 0 0 1 2.05-1.71l.49.1a2 2 0 0 1 1.51 1.9v.29C9.33 9 8.68 9.62 7.67 9.62h-.15c-1.12 0-1.78-.68-2-2ZM2.49.15Q0 1 0 4v20l.1 1.52a3.56 3.56 0 0 0 3.81 2.64h20.36a3.56 3.56 0 0 0 2.54-.79 3.47 3.47 0 0 0 1.32-3.17V4a6.16 6.16 0 0 0-.2-1.71A3.72 3.72 0 0 0 24.12 0h-20a7 7 0 0 0-1.63.15" style="fill:#8487ad"/>
	</g>
</symbol>
</svg>